<?xml version="1.0" encoding="UTF-8" standalone="no"?>
<svg
   xmlns:dc="http://purl.org/dc/elements/1.1/"
   xmlns:cc="http://creativecommons.org/ns#"
   xmlns:rdf="http://www.w3.org/1999/02/22-rdf-syntax-ns#"
   xmlns:svg="http://www.w3.org/2000/svg"
   xmlns="http://www.w3.org/2000/svg"
   xmlns:sodipodi="http://sodipodi.sourceforge.net/DTD/sodipodi-0.dtd"
   xmlns:inkscape="http://www.inkscape.org/namespaces/inkscape"
   version="1.1"
   id="Layer_1"
   x="0px"
   y="0px"
   viewBox="0 0 674.6 296.8"
   style="enable-background:new 0 0 674.6 296.8;"
   xml:space="preserve"
   sodipodi:docname="320neo-outline-nose.svg"
   inkscape:version="1.0.2 (e86c870879, 2021-01-15, custom)"><metadata
   id="metadata85"><rdf:RDF><cc:Work
       rdf:about=""><dc:format>image/svg+xml</dc:format><dc:type
         rdf:resource="http://purl.org/dc/dcmitype/StillImage" /><dc:title /></cc:Work></rdf:RDF></metadata><defs
   id="defs83"><rect
     x="242.32021"
     y="108.98321"
     width="300.16046"
     height="93.76209"
     id="rect89" /></defs><sodipodi:namedview
   pagecolor="#ffffff"
   bordercolor="#666666"
   borderopacity="1"
   objecttolerance="10"
   gridtolerance="10"
   guidetolerance="10"
   inkscape:pageopacity="0"
   inkscape:pageshadow="2"
   inkscape:window-width="1920"
   inkscape:window-height="1027"
   id="namedview81"
   showgrid="false"
   inkscape:pagecheckerboard="true"
   inkscape:zoom="1.6424548"
   inkscape:cx="337.29999"
   inkscape:cy="148.39999"
   inkscape:window-x="-8"
   inkscape:window-y="-8"
   inkscape:window-maximized="1"
   inkscape:current-layer="Layer_1"
   inkscape:document-rotation="0" />
<style
   type="text/css"
   id="style2">
	.st0{fill:none;stroke:#FFFFFF;stroke-width:1.75px;stroke-miterlimit:10;}
</style>
<path
   class="st0"
   d="M172.3,281.1c12.6,1.8,37.9,4.2,50.5,5.3c69.4,5.8,81.4,5.7,111.1,6.9c166.1,6.9,342,1.8,342,1.8l-2.6-269.5  H392.7l-24.5,1.6L375,0h-4.2l-19.3,27.9c0,0-65.5,2.1-129.1,18.1c-43.2,10.9-85.6,28.1-106,55.5l-25.8,26.6c0,0-88.7,30.2-90.5,71.7  C-0.2,205.8-7.1,255.9,172.3,281.1z"
   id="path4" />
<polygon
   class="st0"
   points="98,129.6 119.5,126.5 142,101.7 142,98.7 116.4,101.5 92.1,126.5 "
   id="polygon6" />
<polygon
   class="st0"
   points="152.3,98.1 131.2,123.5 131.2,126.1 149.3,131.7 168.2,131.7 169.9,129.1 169.9,99.2 167.8,97.3 "
   id="polygon8" />
<polygon
   class="st0"
   points="178,130.3 180.6,133.4 205.7,133.4 208.5,130.3 208.5,107.5 200.1,98.7 180.9,98.7 178,101.1 "
   id="polygon10" />
<polygon
   class="st0"
   points="203.1,138.9 178,138.9 173.7,134.8 173.7,97.8 178.5,93.9 203.1,93.9 213,104.2 213,132.4 211.4,136.5  207.5,138.9 "
   id="polygon12" />
<line
   class="st0"
   x1="173.7"
   y1="61.8"
   x2="173.7"
   y2="97.8"
   id="line14" />
<polyline
   class="st0"
   points="222.5,286.3 222.5,280.8 222.4,46 "
   id="polyline16" />
<polyline
   class="st0"
   points="50.1,146.4 60.6,168.5 60.6,255.3 "
   id="polyline18" />
<path
   class="st0"
   d="M7.7,222.1l4.6-3.8c0,0,30.8,24.5,48.3,24"
   id="path20" />
<line
   class="st0"
   x1="13.1"
   y1="200.9"
   x2="60.6"
   y2="198.2"
   id="line22" />
<path
   class="st0"
   d="M13.1,186c0,0,21.4-19,43.1-26.7"
   id="path24" />
<path
   class="st0"
   d="M60.6,218.3c0,0,86.9,7.6,161.8,7.6h235v68"
   id="path26" />
<line
   class="st0"
   x1="457.4"
   y1="253"
   x2="675.6"
   y2="253"
   id="line28" />
<polyline
   class="st0"
   points="457.4,25.5 457.4,147.5 457.4,225.9 "
   id="polyline30" />
<line
   class="st0"
   x1="674.6"
   y1="147.5"
   x2="457.4"
   y2="147.5"
   id="line32" />
<line
   class="st0"
   x1="457.4"
   y1="37.5"
   x2="673.5"
   y2="37.5"
   id="line34" />
<path
   class="st0"
   d="M222.5,57.9c0,0,30.9-10.2,234.9-11.9"
   id="path36" />
<polygon
   class="st0"
   points="436.1,31.4 441,32.2 442.7,27.1 440.8,27.1 "
   id="polygon38" />
<path
   class="st0"
   d="M300.1,63.1c0,0-3.9,39.9-2.6,117.1c0,0,0,0.7,0.5,1.7c0.7,1.7,2.4,4.4,6.6,6.9h50.9c0,0,6.3,0.8,6.5-7.3  s-3.2-69.6,3.1-118.4c0,0-1.6-5.7-5.2-6.5s-50.3,0-50.3,0S304.5,55.3,300.1,63.1z"
   id="path40" />
<polygon
   class="st0"
   points="292.3,182.6 292.3,188.9 299.1,194.6 363.5,194.6 370.3,190.2 370.3,182.6 361.9,181.5 361,185.8  359.1,188.1 354.2,188.9 304.5,188.8 300,185.3 298,182 "
   id="polygon42" />
<polyline
   class="st0"
   points="299.3,73.2 304.4,73.2 306.9,68.8 306.9,64.7 309.1,63.7 356.3,63.7 358,64.7 358,68.5 359.6,72.1  364,72.3 "
   id="polyline44" />
<circle
   class="st0"
   cx="344.1"
   cy="115.6"
   r="6.1"
   id="circle46" />
<polyline
   class="st0"
   points="322.2,128.5 319.1,128.5 317.7,125.7 317.7,122.6 320.4,120.2 320.4,112 318.9,110.3 318.9,106.3  325.5,106.3 325.5,110.3 324,112 324,120.2 326.7,122.6 326.7,125.7 325.3,128.5 322.2,128.5 "
   id="polyline48" />
<path
   class="st0"
   d="M256.5,243.1h22.7c0,0,2.9,0.6,3.7,4.1v24.5c0,0,0.3,4-4.5,4.1s-22.3,0-22.3,0s-3.5,0.2-3.5-4.3  c0-4.5,0-24.7,0-24.7S252.6,243.3,256.5,243.1z"
   id="path50" />
<path
   class="st0"
   d="M209.7,243.1h6.3c0,0,2,0.2,2.2,2.7c0.1,2.5,0,24.8,0,24.8s-0.3,2.6-3.3,2.7c-3,0.1-5.6,0-5.6,0  s-2.9-0.6-2.8-2.7c0.1-2.2,0-25.8,0-25.8S206.3,243.1,209.7,243.1z"
   id="path52" />
<polygon
   class="st0"
   points="189.2,240.9 185.2,243.6 178,243.6 178,245.1 192.3,245.1 195.5,242.4 194.5,240.9 "
   id="polygon54" />
<polygon
   class="st0"
   points="194.7,265.8 199.5,265.8 200.2,267.4 196.5,270.8 183.9,270.8 183.9,269.3 191,269.3 "
   id="polygon56" />
<circle
   class="st0"
   cx="440"
   cy="215.6"
   r="7.5"
   id="circle58" />
<line
   class="st0"
   x1="436.3"
   y1="215.6"
   x2="443.9"
   y2="215.6"
   id="line60" />
<path
   class="st0"
   d="M420.6,247.6v22.5c0,0-0.6,4.7,5.5,4.7s26.2,0,26.2,0s5.1,1,5.1-4.3c0-5.3,0-23.9,0-23.9s-0.4-3.3-5.5-3.5  c-5.1-0.2-27.2,0-27.2,0S420.6,243.5,420.6,247.6z"
   id="path62" />
<path
   class="st0"
   d="M431.6,253c0,0-4.7-0.1-4.7,5s4.7,6.1,4.7,6.1h16.8c0,0,3.3-1.6,3.5-5.5c0.2-3.9-4.4-5.5-4.4-5.5L431.6,253z"
   id="path64" />
<circle
   class="st0"
   cx="434.1"
   cy="258.6"
   r="1.6"
   id="circle66" />
<circle
   class="st0"
   cx="444.1"
   cy="258.6"
   r="1.6"
   id="circle68" />
<polygon
   class="st0"
   points="271.4,259.5 267.7,259.5 258.2,261.1 258.2,262.4 267.7,263.3 271.4,263.3 273.2,261.4 "
   id="polygon70" />
<path
   class="st0"
   d="M98.2,190.1v21.5c0,0,0.4,4,6.1,4.2c5.7,0.2,15.1,0,15.1,0s6.1-0.5,6.1-5s0-20.3,0-20.3s-0.2-4.7-5.5-4.6  c-5.3,0.1-16.5,0-16.5,0S98.2,185.9,98.2,190.1z"
   id="path72" />
<circle
   class="st0"
   cx="111.8"
   cy="201"
   r="9.2"
   id="circle74" />
<circle
   class="st0"
   cx="111.8"
   cy="201"
   r="1.8"
   id="circle76" />
<ellipse
   class="st0"
   cx="398.2"
   cy="260.6"
   rx="7.1"
   ry="4.5"
   id="ellipse78" />
<text
   xml:space="preserve"
   id="text87"
   style="font-style:normal;font-weight:normal;font-size:53.3333px;line-height:1.25;font-family:sans-serif;white-space:pre;shape-inside:url(#rect89);fill:#000000;fill-opacity:1;stroke:none;"
   transform="matrix(-1.1477854,0,0,1.2565875,595.78451,-0.69010934)"><tspan
     x="242.32031"
     y="156.16989"><tspan
       style="font-size:53.3333px;fill:#ff0000">SAMPLE</tspan></tspan></text></svg>
