<?xml version="1.0" encoding="UTF-8" standalone="no"?>
<svg
   xmlns:dc="http://purl.org/dc/elements/1.1/"
   xmlns:cc="http://creativecommons.org/ns#"
   xmlns:rdf="http://www.w3.org/1999/02/22-rdf-syntax-ns#"
   xmlns:svg="http://www.w3.org/2000/svg"
   xmlns="http://www.w3.org/2000/svg"
   xmlns:xlink="http://www.w3.org/1999/xlink"
   xmlns:sodipodi="http://sodipodi.sourceforge.net/DTD/sodipodi-0.dtd"
   xmlns:inkscape="http://www.inkscape.org/namespaces/inkscape"
   version="1.0"
   width="2190.3999pt"
   height="2190pt"
   viewBox="0 0 2190.3999 2190"
   preserveAspectRatio="xMidYMid meet"
   id="svg184"
   sodipodi:docname="eas_logo.svg"
   inkscape:version="1.0.2 (e86c870879, 2021-01-15, custom)">
  <metadata
     id="metadata190">
    <rdf:RDF>
      <cc:Work
         rdf:about="">
        <dc:format>image/svg+xml</dc:format>
        <dc:type
           rdf:resource="http://purl.org/dc/dcmitype/StillImage" />
        <dc:title></dc:title>
      </cc:Work>
    </rdf:RDF>
  </metadata>
  <defs
     id="defs188">
    <inkscape:path-effect
       effect="bspline"
       id="path-effect1669"
       is_visible="true"
       lpeversion="1"
       weight="33.333333"
       steps="2"
       helper_size="0"
       apply_no_weight="true"
       apply_with_weight="true"
       only_selected="false" />
    <inkscape:path-effect
       effect="bspline"
       id="path-effect1645"
       is_visible="true"
       lpeversion="1"
       weight="33.333333"
       steps="2"
       helper_size="0"
       apply_no_weight="true"
       apply_with_weight="true"
       only_selected="false" />
    <rect
       x="603.00751"
       y="995.87604"
       width="1594.3153"
       height="927.35248"
       id="rect1131" />
    <linearGradient
       inkscape:collect="always"
       xlink:href="#linearGradient1160"
       id="linearGradient1162"
       x1="1370.5995"
       y1="608.19989"
       x2="1383.8795"
       y2="1836.2418"
       gradientUnits="userSpaceOnUse" />
    <linearGradient
       inkscape:collect="always"
       id="linearGradient1160">
      <stop
         style="stop-color:#000000;stop-opacity:1"
         offset="0"
         id="stop1156" />
      <stop
         style="stop-color:#000000;stop-opacity:0"
         offset="1"
         id="stop1158" />
    </linearGradient>
  </defs>
  <sodipodi:namedview
     pagecolor="#ffffff"
     bordercolor="#666666"
     borderopacity="1"
     objecttolerance="10"
     gridtolerance="10"
     guidetolerance="10"
     inkscape:pageopacity="0"
     inkscape:pageshadow="2"
     inkscape:window-width="1920"
     inkscape:window-height="1027"
     id="namedview186"
     showgrid="false"
     inkscape:zoom="0.16417706"
     inkscape:cx="3340.2477"
     inkscape:cy="1056.6705"
     inkscape:window-x="-8"
     inkscape:window-y="-8"
     inkscape:window-maximized="1"
     inkscape:current-layer="svg184" />
  <g
     id="g1741"
     style="display:inline"
     transform="translate(-294.1275,-294.1485)">
    <rect
       style="display:inline;fill:#333333;stroke-width:0.745055"
       id="rect193"
       width="2189.9221"
       height="2189.8516"
       x="294.1275"
       y="294.1485"
       ry="299.60406" />
    <path
       style="display:inline;fill:#666666;stroke:none;stroke-width:0.75px;stroke-linecap:butt;stroke-linejoin:miter;stroke-opacity:1"
       d="m 2073.6987,881.76211 c 136.8173,54.1853 273.6356,108.37095 342.027,189.97339 68.3914,81.6024 68.3577,190.6209 68.3241,299.6401 m 0,0 c 0,0 0,821.5449 0,821.5449 -10.5915,82.183 -16.7177,129.718 -82.66,198.6856 -65.9424,68.9676 -113.476,77.5542 -195.6567,92.3996 0,0 -768.0076,-0.1012 -768.0076,-0.1012 9.9339,-3.9413 19.8681,-7.8827 46.4424,-17.3875 26.5743,-9.5048 69.787,-24.5724 126.2272,-48.5713 56.4402,-23.9989 126.1044,-56.9276 188.5375,-90.3332 62.4331,-33.4056 117.6316,-67.286 167.7573,-101.0522 50.1256,-33.7663 95.1758,-67.4164 143.9474,-112.2376 48.7716,-44.8213 101.2618,-100.8109 140.7884,-151.0818 39.5266,-50.271 66.0875,-94.8206 85.3642,-131.467 19.2767,-36.6465 31.2681,-65.3878 43.1646,-100.4113 11.8966,-35.0235 23.6976,-76.3271 32.3584,-119.345 8.6607,-43.018 14.1806,-87.7478 15.4178,-135.2388 1.2373,-47.4911 -1.8082,-97.7408 -7.3281,-137.9034 -5.5199,-40.1627 -13.5142,-70.2364 -24.3638,-99.6447 -10.8496,-29.4083 -24.554,-58.1495 -35.2133,-79.2778 -10.6593,-21.1282 -18.2729,-34.6423 -32.5487,-54.7238 -14.2759,-20.0815 -35.2132,-46.7291 -49.7745,-64.0504 -14.5613,-17.3214 -22.7459,-25.3156 -32.4536,-35.0232 -9.7076,-9.70767 -20.9376,-21.12805 -32.2821,-31.6812 -11.3445,-10.55314 -22.7772,-20.21674 -35.6278,-29.96178 -12.8507,-9.74504 -27.0044,-19.48423 -37.6641,-26.48479 -10.6597,-7.00056 -17.7929,-11.24013 -28.3349,-16.82431 -10.5421,-5.58418 -24.4931,-12.51291 -38.4434,-19.44131"
       id="path1643-0"
       inkscape:path-effect="#path-effect1669"
       inkscape:original-d="m 2073.6987,881.76211 c 0,0 273.6354,108.37134 410.452,162.55589 -0.033,109.0199 -0.1009,327.0576 -0.1009,327.0576 m 0,0 v 821.5449 c 0,0 -16.7169,129.7181 -31.7746,246.549 -116.8276,21.105 -246.5421,44.5362 -246.5421,44.5362 l -768.0076,-0.1012 c 0,0 19.8684,-7.8819 29.8018,-11.824 43.2152,-15.0674 86.4279,-30.135 129.6406,-45.2035 69.6678,-32.9293 139.332,-65.858 208.9969,-98.7882 55.2014,-33.881 110.3999,-67.7614 165.5987,-101.6432 45.0526,-33.6508 90.1028,-67.3008 135.1531,-100.9524 52.4931,-55.9911 104.9833,-111.9806 157.4738,-167.9721 26.5628,-44.5507 53.1237,-89.1003 79.6845,-133.6516 11.9926,-28.7417 23.984,-57.483 35.9748,-86.2255 11.8023,-41.3046 23.6034,-82.6082 35.4039,-123.9135 5.5209,-44.7308 11.0407,-89.4606 16.5599,-134.192 -3.0448,-50.2508 -6.0902,-100.5005 -9.1365,-150.7519 -7.9938,-30.074 -15.9881,-60.1477 -23.9832,-90.2227 -13.7043,-28.7416 -27.4087,-57.4829 -41.1142,-86.2255 -7.6131,-13.5139 -15.2267,-27.028 -22.8412,-40.5431 -20.9374,-26.6478 -41.8748,-53.2953 -62.8133,-79.9442 -8.1841,-7.9938 -16.3687,-15.988 -24.5543,-23.9832 -11.2297,-11.42009 -22.4597,-22.84049 -33.6907,-34.26179 -11.458,-9.6849 -22.8907,-19.3485 -34.3756,-29.0563 -14.2165,-9.7822 -28.3702,-19.5214 -42.5568,-29.2834 -7.1328,-4.239 -14.266,-8.4786 -21.4003,-12.7191 -13.9498,-6.9278 -41.851,-20.7852 -41.851,-20.7852"
       sodipodi:nodetypes="czccczccccccccccccccccccccccc" />
    <rect
       style="display:inline;fill:url(#linearGradient1162);fill-opacity:1;stroke-width:0.745055"
       id="rect193-1"
       width="2189.9221"
       height="2189.8516"
       x="294.1275"
       y="294.1485"
       ry="299.60406" />
    <path
       style="display:inline;opacity:1;fill:#ffffff;fill-opacity:1;stroke-width:1.07674"
       d="m 1895.7575,3309.9897 c 169.2286,-53.4114 330.4896,-120.1133 480.7663,-198.8581 84.6033,-44.332 180.6877,-103.0597 257.3419,-157.2898 115.8609,-81.9675 214.167,-169.5188 300.7177,-267.8187 l 8.3079,-9.4356 v 16.8471 16.847 l -10.4828,11.4316 c -51.5753,56.2432 -116.9617,117.0887 -181.7161,169.0963 -162.878,130.816 -364.237,246.622 -591.1325,339.9735 -57.5719,23.6868 -93.7009,37.1121 -178.0262,66.1535 l -43.4332,14.9583 -23.8633,-0.1029 c -23.3653,-0.1008 -23.751,-0.1385 -18.4797,-1.8022 z"
       id="path1621"
       transform="scale(0.75)" />
    <path
       style="display:inline;opacity:1;fill:#ffffff;fill-opacity:1;stroke-width:1.07674"
       d="m 1938.2889,3295.8251 c 250.0551,-83.2694 471.4258,-190.0397 662.7361,-319.6473 72.5493,-49.1502 138.5107,-100.6296 203.5046,-158.8248 34.5679,-30.9518 103.0815,-100.5409 133.2471,-135.3387 l 5.1146,-5.9 v 17.2635 17.2635 l -9.8483,10.7134 c -79.1948,86.1512 -176.9227,170.9145 -281.9767,244.5696 -124.684,87.4181 -263.5002,164.9425 -419.9029,234.5025 -83.0267,36.926 -137.9961,58.2116 -253.3993,98.1225 l -38.5887,13.3455 -24.4008,-0.057 -24.4008,-0.057 z"
       id="path1623"
       transform="scale(0.75)" />
    <path
       style="display:inline;opacity:1;fill:#ffffff;fill-opacity:1;stroke-width:1.07674"
       d="m 1891.9889,3311.0927 c 0.8884,-0.3477 20.0275,-6.796 42.5314,-14.3296 248.0809,-83.0498 454.2112,-181.0119 644.4314,-306.2618 78.7394,-51.8458 145.876,-103.2292 218.5791,-167.2911 22.8736,-20.1549 106.3353,-103.6032 128.6709,-128.6502 l 16.1512,-18.1118 0.2964,17.4241 0.2964,17.4241 -13.665,14.6928 c -7.5157,8.0811 -27.0456,28.0175 -43.3997,44.3033 -172.1734,171.4539 -395.9882,317.3011 -672.4839,438.2188 -72.3476,31.6392 -122.1769,50.8081 -226.4953,87.1304 l -46.679,16.2531 -24.9245,-0.085 c -13.7085,-0.047 -24.1977,-0.3695 -23.3094,-0.7171 z"
       id="path1625"
       transform="scale(0.75)" />
    <path
       style="display:inline;opacity:1;fill:#ffffff;fill-opacity:1;stroke-width:1.07674"
       d="m 1891.0931,3311.355 c 0.2968,-0.2969 19.1533,-6.7888 41.9033,-14.4266 242.9829,-81.5759 439.9398,-174.0135 626.0356,-293.8166 84.3829,-54.3233 156.7015,-108.7728 232.5767,-175.1097 20.1819,-17.6448 114.0562,-111.078 135.7708,-135.1327 l 14.9734,-16.5871 0.2964,17.5134 0.2965,17.5133 -5.8182,6.6109 c -19.8612,22.5673 -83.0818,84.6227 -116.4468,114.3007 -156.6858,139.3713 -344.8851,258.0327 -572.9833,361.2712 -86.971,39.3636 -142.297,61.0567 -265.1493,103.964 l -41.342,14.439 h -25.3264 c -13.9296,0 -25.0836,-0.2429 -24.7867,-0.5398 z"
       id="path1627"
       transform="scale(0.75)" />
    <path
       style="display:inline;opacity:1;fill:#ffffff;fill-opacity:1;stroke-width:0.761373"
       d="m 3063.8573,2510.7146 c 9.2685,-14.2236 32.43,-56.0896 46.279,-83.6522 60.4008,-120.2109 96.3407,-241.472 111.1151,-374.9023 5.0699,-45.7871 6.5725,-81.8438 5.8701,-140.854 -0.5494,-46.1536 -1.4442,-59.734 -6.6347,-100.7008 -15.1559,-119.6188 -56.6224,-234.2068 -120.0006,-331.6082 -3.4882,-5.3607 -6.3421,-9.9004 -6.3421,-10.0881 0,-0.1878 3.781,-0.3414 8.4023,-0.3414 h 8.4024 l 8.0881,12.3723 c 74.4263,113.8496 117.6399,242.1862 128.5056,381.6383 3.707,47.5771 3.7057,103.8945 0,156.0815 -12.0158,169.0507 -61.3147,328.4055 -147.6773,477.3552 l -9.2855,16.0145 -13.9232,0.208 -13.9233,0.2078 1.1277,-1.7306 z"
       id="path1629"
       transform="scale(0.75)" />
    <path
       style="display:inline;opacity:1;fill:#ffffff;fill-opacity:1;stroke-width:0.761373"
       d="m 3226.6157,1893.6041 c -0.035,-46.8674 -9.6128,-118.8456 -23.1385,-173.8915 -29.1963,-118.8209 -83.9732,-227.3641 -161.8987,-320.8107 -40.2376,-48.252 -91.0202,-97.2389 -138.7961,-133.8881 -39.5586,-30.3458 -100.1111,-69.5286 -133.7447,-86.5448 -2.7219,-1.3771 -4.5204,-2.6509 -3.9967,-2.8305 1.0156,-0.3486 35.3804,16.9898 53.1053,26.7936 34.3278,18.9871 75.7413,46.4122 107.3536,71.0922 65.4092,51.0655 131.5524,119.4324 175.943,181.8581 4.4123,6.205 8.5694,11.9485 9.2379,12.7635 0.6686,0.8149 4.3929,6.3535 8.2761,12.308 32.0564,49.1536 59.3015,102.8856 79.4852,156.7578 28.1558,75.1506 45.4705,157.8426 50.2181,239.8326 0.4364,7.5376 0.9692,16.5313 1.1839,19.986 l 0.3903,6.2813 h -11.8057 -11.8057 l -0.01,-9.7075 z"
       id="path1631"
       transform="scale(0.75)" />
    <path
       style="display:inline;opacity:1;fill:#ffffff;fill-opacity:1;stroke-width:1.52275"
       d="m 1892.7766,3310.6609 c 1.3633,-0.7964 19.522,-7.2276 40.3528,-14.2916 153.7552,-52.1404 263.6285,-97.0934 385.8216,-157.8529 177.7165,-88.3685 326.1169,-185.1142 459.1079,-299.3034 23.2497,-19.9627 124.8666,-120.2361 155.9137,-153.8522 44.6432,-48.3371 99.7169,-123.6451 137.3616,-187.8286 20.3788,-34.7454 54.1807,-101.6857 68.8183,-136.2858 44.6362,-105.51 70.7781,-209.2906 82.6601,-328.1518 3.323,-33.2415 4.6572,-128.6943 2.3158,-165.6803 -10.1973,-161.083 -64.2281,-309.943 -158.029,-435.385 -21.4551,-28.6925 -42.5969,-53.1468 -71.1139,-82.256 l -27.2356,-27.8012 h 7.5828 7.5828 l 28.8004,29.3129 c 69.5811,70.8192 112.6208,129.9052 152.181,208.9177 78.7929,157.3708 103.0921,332.9347 74.4089,537.6086 -29.6523,211.5881 -124.4018,413.7153 -276.2426,589.3028 -7.9667,9.2126 -16.8618,19.8338 -19.7669,23.6026 -14.3093,18.5634 -85.781,89.3564 -128.6914,127.4693 -141.8968,126.0324 -328.0743,244.7368 -534.3285,340.6809 -97.3049,45.2636 -160.6644,70.8106 -276.5339,111.5 -27.2191,9.5585 -52.0728,18.3814 -55.2304,19.6068 -6.7331,2.6127 -60.1594,3.2714 -55.7355,0.6872 z"
       id="path1635"
       transform="scale(0.75)" />
    <path
       style="opacity:1;fill:#f9f9f9;fill-opacity:1;stroke-width:4.30698"
       d="m 753.50845,1960.6056 v -387.6279 h 310.10235 310.1023 v 73.2186 73.2186 H 1151.9038 930.0945 v 81.8326 81.8325 h 208.8884 208.8883 v 68.9116 68.9117 H 1138.9829 930.0945 v 92.6 92.6 h 223.9628 223.9628 v 71.0651 71.0651 H 1065.7643 753.50845 Z"
       id="path1599"
       transform="scale(0.75)" />
    <path
       style="opacity:1;fill:#f9f9f9;fill-opacity:1;stroke-width:4.30698"
       d="m 1465.2248,2340.6963 c 1.575,-5.7354 271.0729,-723.3724 285.4748,-760.1814 2.6981,-6.8958 12.0201,-7.5372 109.5521,-7.5372 h 106.6031 l 144.8943,385.1591 c 79.6918,211.8375 144.8942,386.2701 144.8942,387.6279 0,1.3579 -42.1545,2.4647 -93.6767,2.4597 l -93.6768,-0.01 -27.4488,-79.67 -27.4488,-79.6704 h -154.0728 -154.0728 l -17.1374,48.4535 c -9.4255,26.6494 -21.6375,62.505 -27.1377,79.679 l -10.0004,31.2256 h -94.4081 c -87.8296,0 -94.2638,-0.5252 -92.3382,-7.5372 z m 498.6375,-295.0279 c 0.1351,-7.7911 -100.8592,-304.695 -103.6489,-304.7079 -1.2878,-0.01 -24.8966,66.3706 -52.4639,147.5032 -27.5673,81.1327 -51.4322,150.9057 -53.0332,155.0512 -2.7238,7.053 3.8983,7.5372 103.0709,7.5372 81.8643,0 106.003,-1.2251 106.0751,-5.3837 z"
       id="path1601"
       transform="scale(0.75)" />
    <path
       style="opacity:1;fill:#f9f9f9;fill-opacity:1;stroke-width:4.30698"
       d="m 2586.1271,2364.8827 c -85.4736,-10.762 -148.6459,-37.3614 -191.9876,-80.8383 -39.4105,-39.5336 -58.7694,-84.1727 -66.0212,-152.2365 l -2.6386,-24.7651 91.5609,0.059 c 50.3585,0.035 95.6941,1.168 100.7458,2.5236 7.1736,1.925 9.7773,6.9307 11.8903,22.8591 5.9862,45.1262 43.0533,80.3534 97.6061,92.7611 34.097,7.7552 105.7884,8.8093 137.4419,2.0209 28.3752,-6.0854 59.8114,-27.6652 70.3687,-48.3054 10.5987,-20.7213 11.3531,-64.5056 1.4417,-83.6722 -16.2934,-31.508 -36.4899,-38.6021 -194.4173,-68.2894 -134.3211,-25.2498 -167.0127,-33.9112 -205.8391,-54.5357 -32.8878,-17.4698 -68.6526,-56.3538 -80.1858,-87.179 -26.71,-71.3889 -19.9317,-160.2518 16.5617,-217.1218 53.8498,-83.9176 177.1152,-124.7146 340.5283,-112.7042 99.1284,7.2857 152.9258,22.2852 205.1093,57.1877 55.3671,37.0318 87.7487,91.7624 98.2084,165.9893 l 2.5794,18.3047 -98.0346,-0.01 -98.0346,-0.01 -7.8832,-26.9126 c -9.9137,-33.8446 -36.6167,-61.4588 -71.8379,-74.2893 -32.0803,-11.6863 -131.1997,-12.2603 -155.9256,-0.903 -40.0172,18.3812 -62.5419,53.8654 -58.2672,91.791 2.5702,22.8025 13.1535,39.1063 32.886,50.6617 16.6161,9.7304 19.3409,10.361 170.877,39.5463 66.4901,12.8057 134.325,27.3943 150.7442,32.419 111.153,34.0158 166.7243,111.105 159.6655,221.4897 -4.409,68.9466 -23.2245,114.0386 -64.6877,155.0267 -42.1571,41.6741 -96.7008,65.9965 -174.1945,77.6778 -45.8598,6.9128 -168.3977,7.7252 -218.2603,1.447 z"
       id="path1603"
       transform="scale(0.75)" />
    <path
       style="opacity:1;fill:#ffffff;fill-opacity:1;stroke-width:4.30698"
       d="m 753.50845,1960.6056 v -387.6279 h 310.10235 310.1023 v 73.2186 73.2186 H 1151.9038 930.0945 v 81.8326 81.8325 h 208.8884 208.8883 v 68.9116 68.9117 H 1138.9829 930.0945 v 92.6 92.6 h 223.9628 223.9628 v 71.0651 71.0651 H 1065.7643 753.50845 Z"
       id="path1605"
       transform="scale(0.75)" />
    <path
       style="opacity:1;fill:#ffffff;fill-opacity:1;stroke-width:4.30698"
       d="m 1475.9014,2345.2449 c -8.4047,-2.1886 -8.1335,-11.9582 0.9334,-33.6207 2.9744,-7.1065 5.8869,-14.8591 6.4721,-17.2279 0.5852,-2.3688 3.4924,-10.1214 6.4604,-17.2279 2.9681,-7.1065 5.8753,-14.8591 6.4605,-17.2279 0.5852,-2.3689 3.4924,-10.1214 6.4605,-17.2279 2.968,-7.1065 5.8752,-14.8591 6.4604,-17.2279 0.5853,-2.3689 3.4925,-10.1214 6.4605,-17.2279 2.968,-7.1065 5.8753,-14.8591 6.4605,-17.2279 0.5852,-2.3689 3.2999,-9.7631 6.0328,-16.4316 2.7328,-6.6685 4.9687,-14.7912 4.9687,-18.0504 0,-3.2593 1.7891,-7.0316 3.9757,-8.383 2.1865,-1.3514 5.2764,-8.3798 6.8664,-15.6187 1.5899,-7.239 5.6033,-18.361 8.9187,-24.7158 3.3154,-6.3547 6.04,-14.8314 6.0546,-18.837 0.015,-4.0057 1.8155,-8.3887 4.0021,-9.7401 2.1866,-1.3514 5.2765,-8.3799 6.8664,-15.6188 1.5899,-7.2389 5.6034,-18.361 8.9188,-24.7157 3.3154,-6.3547 6.0399,-14.8314 6.0545,-18.8371 0.015,-4.0056 1.8156,-8.3887 4.0022,-9.7401 2.1866,-1.3514 5.2764,-8.3798 6.8664,-15.6187 1.5899,-7.2389 5.6034,-18.361 8.9188,-24.7157 3.3154,-6.3548 6.0399,-14.5582 6.0545,-18.2299 0.015,-3.6717 1.6686,-8.517 3.6757,-10.7674 2.007,-2.2504 15.8204,-37.04 30.6964,-77.3103 14.876,-40.2702 29.7081,-79.3259 32.9602,-86.7904 3.252,-7.4645 5.9128,-16.5563 5.9128,-20.204 0,-3.6476 1.7891,-7.7378 3.9756,-9.0892 2.1866,-1.3513 5.2765,-8.3798 6.8664,-15.6187 1.59,-7.2389 5.6034,-18.361 8.9188,-24.7157 3.3154,-6.3547 6.04,-14.8314 6.0546,-18.8371 0.015,-4.0057 1.8155,-8.3887 4.0021,-9.7401 2.1866,-1.3514 5.2765,-8.3798 6.8664,-15.6187 1.5899,-7.2389 5.6034,-18.361 8.9188,-24.7157 3.3154,-6.3548 6.0399,-14.0031 6.0545,-16.9963 0.015,-2.9931 1.9639,-8.8076 4.3317,-12.9209 2.3678,-4.1133 6.0902,-12.5301 8.272,-18.7039 5.3454,-15.1262 17.0708,-16.665 127.425,-16.7228 l 90.4718,-0.047 5.1175,11.8442 c 2.8146,6.5143 6.4096,17.1924 7.9889,23.729 1.5794,6.5367 4.595,12.9501 6.7014,14.2519 2.1064,1.3018 3.8418,5.6443 3.8564,9.65 0.013,4.0057 2.7392,12.4824 6.0545,18.8371 3.3154,6.3547 7.3289,17.4768 8.9188,24.7157 1.59,7.2389 4.6798,14.2674 6.8664,15.6187 2.1866,1.3514 3.9876,5.7345 4.0022,9.7401 0.013,4.0057 2.7391,12.4824 6.0545,18.8371 3.3154,6.3548 7.3288,17.4768 8.9188,24.7158 1.5899,7.2389 4.6798,14.2673 6.8664,15.6187 2.1866,1.3514 3.9875,5.7344 4.0021,9.7401 0.013,4.0056 2.9218,12.8344 6.4605,19.6195 3.5387,6.7851 6.4339,14.2447 6.4339,16.577 0,2.3323 2.6758,10.3478 5.9462,17.8123 3.2703,7.4645 22.885,59.1181 43.5881,114.7858 20.703,55.6677 40.1576,106.5243 43.2323,113.0148 3.0747,6.4905 6.8669,17.6125 8.427,24.7157 1.5601,7.1032 4.6256,14.0206 6.8122,15.372 2.1866,1.3514 3.9756,5.4415 3.9756,9.0892 0,3.6476 2.7026,12.7394 6.0058,20.2039 17.538,39.6322 80.8131,218.9107 78.1909,221.5395 -1.6866,1.6908 -42.925,3.0742 -91.6409,3.0742 h -88.5743 l -6.4464,-17.2279 c -3.5455,-9.4753 -15.489,-44.3618 -26.541,-77.5256 l -20.0945,-60.2976 h -156.5301 -156.5301 l -14.5694,43.0697 c -8.0131,23.6884 -19.8308,59.0286 -26.2615,78.5338 l -11.6922,35.464 -83.986,-0.431 c -46.1924,-0.2371 -87.4239,-1.3264 -91.6257,-2.4205 z m 487.8675,-299.8677 c 0,-6.7661 -86.6276,-264.5685 -97.2294,-289.353 -4.0532,-9.4753 -8.0703,-15.2898 -8.927,-12.9209 -0.8566,2.3688 -11.3512,32.41 -23.3213,66.7581 -58.1871,166.9679 -79.6502,231.8582 -78.164,236.3167 2.5399,7.6198 207.6417,6.8288 207.6417,-0.8009 z"
       id="path1607"
       transform="scale(0.75)" />
    <path
       style="opacity:1;fill:#ffffff;fill-opacity:1;stroke-width:4.30698"
       d="m 2611.9689,2365.3476 c -97.0363,-6.8534 -165.8809,-33.4862 -215.6914,-83.4412 -41.5227,-41.6432 -59.0376,-81.2046 -68.3592,-154.4055 l -2.6052,-20.4581 h 72.7077 c 39.9893,0 84.6542,1.2486 99.2553,2.7748 24.1256,2.5216 26.7746,3.7986 29.036,13.9977 10.4961,47.3366 36.0694,78.5913 77.7571,95.0316 35.0727,13.8315 131.9009,17.8414 166.0242,6.8754 51.9663,-16.7 72.8371,-42.7238 72.8371,-90.8204 0,-41.6331 -13.1785,-61.0636 -51.0182,-75.2212 -19.2091,-7.1871 -179.2707,-41.3816 -233.7806,-49.9434 -21.8445,-3.4311 -27.2342,-4.5765 -34.4558,-7.3225 -3.5533,-1.3512 -18.0893,-5.6685 -32.3023,-9.594 -75.5638,-20.8704 -136.2166,-82.2013 -146.8616,-148.5036 -4.0153,-25.0097 -0.9471,-94.3847 5.2352,-118.3715 14.1578,-54.9313 51.2277,-100.4074 103.7081,-127.2257 16.1174,-8.2362 30.7282,-16.913 32.4686,-19.2818 1.7403,-2.3689 3.194,-3.1137 3.2302,-1.6551 0.036,1.4585 13.1484,-1.074 29.1381,-5.6278 28.6271,-8.1529 33.5759,-9.1842 67.8349,-14.1365 22.7644,-3.2907 121.9401,-3.4996 145.2673,-0.306 10.1188,1.3853 27.1194,3.3858 37.7792,4.4455 15.8567,1.5763 33.0336,5.0741 68.9116,14.0326 6.8453,1.7093 21.9842,7.6188 40.9163,15.9718 11.8442,5.2257 23.0276,9.7883 24.852,10.1389 1.8244,0.3506 8.5881,5.525 15.0304,11.4987 6.4423,5.9736 12.9929,10.8611 14.5568,10.8611 3.5047,0 29.7439,26.3888 37.0505,37.2617 21.6305,32.1882 38.4423,76.2536 46.2023,121.1008 l 2.4362,14.0787 -97.6511,-1.1578 -97.651,-1.1578 -7.8835,-23.2003 c -21.8245,-64.2278 -78.6541,-92.0973 -174.2252,-85.4408 -42.4794,2.9587 -50.3195,4.797 -68.5753,16.0797 -41.904,25.8981 -58.1281,81.8045 -33.5663,115.665 15.747,21.7086 55.7865,34.227 186.5265,58.3177 5.9221,1.0912 34.9942,7.0752 64.6047,13.2977 29.6104,6.2226 57.7134,11.9114 62.4511,12.6418 4.7377,0.7305 11.5212,2.4614 15.0744,3.8465 3.5533,1.3851 10.3148,3.095 15.0256,3.7997 8.6421,1.2929 66.3657,28.9154 81.3707,38.9383 29.5361,19.7294 63.0182,70.5942 71.5606,108.7125 11.877,52.9973 3.2727,129.8247 -19.5934,174.9487 -9.9449,19.6255 -57.495,75.9764 -65.5083,77.633 -3.5301,0.7298 -23.4918,13.0442 -26.8645,16.5726 -1.1844,1.2392 -4.0916,2.7595 -6.4604,3.3786 -2.3689,0.619 -20.7812,6.8111 -40.9163,13.76 -20.1351,6.949 -49.2344,14.6437 -64.665,17.0994 -38.8094,6.1762 -143.2991,8.5303 -200.2141,4.5105 z"
       id="path1609"
       transform="scale(0.75)" />
  </g>
</svg>
