<?xml version="1.0" encoding="UTF-8" standalone="no"?>
<svg
   xmlns:dc="http://purl.org/dc/elements/1.1/"
   xmlns:cc="http://creativecommons.org/ns#"
   xmlns:rdf="http://www.w3.org/1999/02/22-rdf-syntax-ns#"
   xmlns:svg="http://www.w3.org/2000/svg"
   xmlns="http://www.w3.org/2000/svg"
   xmlns:sodipodi="http://sodipodi.sourceforge.net/DTD/sodipodi-0.dtd"
   xmlns:inkscape="http://www.inkscape.org/namespaces/inkscape"
   version="1.1"
   id="svg2"
   width="1096"
   height="1148"
   viewBox="0 0 1096 1148"
   sodipodi:docname="SU95-outline-upright.svg"
   inkscape:version="1.0.2 (e86c870879, 2021-01-15, custom)">
  <metadata
     id="metadata8">
    <rdf:RDF>
      <cc:Work
         rdf:about="">
        <dc:format>image/svg+xml</dc:format>
        <dc:type
           rdf:resource="http://purl.org/dc/dcmitype/StillImage" />
        <dc:title />
      </cc:Work>
    </rdf:RDF>
  </metadata>
  <defs
     id="defs6" />
  <sodipodi:namedview
     pagecolor="#ffffff"
     bordercolor="#666666"
     borderopacity="1"
     objecttolerance="10"
     gridtolerance="10"
     guidetolerance="10"
     inkscape:pageopacity="0"
     inkscape:pageshadow="2"
     inkscape:window-width="1920"
     inkscape:window-height="1027"
     id="namedview4"
     showgrid="false"
     inkscape:zoom="1.4982578"
     inkscape:cx="537.72037"
     inkscape:cy="363.74693"
     inkscape:window-x="-8"
     inkscape:window-y="-8"
     inkscape:window-maximized="1"
     inkscape:current-layer="g10"
     inkscape:document-rotation="0" />
  <g
     inkscape:groupmode="layer"
     inkscape:label="Image"
     id="g10">
    <g
       id="g14"
       style="fill:#ffffff">
      <path
         style="fill:#ffffff;fill-opacity:1"
         d="m 511.15789,824 c 0,-1.375 0.22698,-1.9375 0.50439,-1.25 0.27741,0.6875 0.27741,1.8125 0,2.5 -0.27741,0.6875 -0.50439,0.125 -0.50439,-1.25 z m 14,0 c 0,-1.375 0.22698,-1.9375 0.50439,-1.25 0.27741,0.6875 0.27741,1.8125 0,2.5 -0.27741,0.6875 -0.50439,0.125 -0.50439,-1.25 z m -13.75973,-5.4048 c -0.29649,-0.77265 -0.38173,-2.91015 -0.18943,-4.75 0.30657,-2.93301 0.40855,-2.75991 0.82767,1.4048 0.49021,4.87125 0.30994,5.81612 -0.63824,3.3452 z M 525.27236,815 c 0,-2.475 0.19502,-3.4875 0.43337,-2.25 0.23836,1.2375 0.23836,3.2625 0,4.5 -0.23835,1.2375 -0.43337,0.225 -0.43337,-2.25 z m 29.00781,3.26373 c 2.6291,-0.20668 6.6791,-0.20418 9,0.006 2.32091,0.20972 0.16983,0.37882 -4.78017,0.37577 -4.95,-0.003 -6.84892,-0.17464 -4.21983,-0.38131 z m 15.11387,-0.67926 c -0.29875,-0.77854 -0.35205,-2.69104 -0.11845,-4.25 0.36097,-2.40884 0.44724,-2.27721 0.57458,0.8766 l 0.14983,3.71106 8.75,0.3333 8.75,0.3333 -8.78138,0.20563 c -6.79132,0.15904 -8.90449,-0.11515 -9.32458,-1.20989 z m 24.35596,0.67829 c 2.8875,-0.202 7.6125,-0.202 10.5,0 2.8875,0.202 0.525,0.36728 -5.25,0.36728 -5.775,0 -8.1375,-0.16528 -5.25,-0.36728 z M 511.19495,799.5 c 0.0204,-1.65 0.2445,-2.20394 0.49804,-1.23097 0.25354,0.97297 0.23687,2.32297 -0.0371,3 -0.27393,0.67703 -0.48137,-0.11903 -0.46099,-1.76903 z m 14,0 c 0.0204,-1.65 0.2445,-2.20394 0.49804,-1.23097 0.25354,0.97297 0.23687,2.32297 -0.0371,3 -0.27393,0.67703 -0.48137,-0.11903 -0.46099,-1.76903 z m -26.46725,-5.22173 c 1.77523,-0.22091 4.92523,-0.22454 7,-0.008 2.07476,0.21648 0.6223,0.39722 -3.2277,0.40166 -3.85,0.004 -5.54754,-0.17268 -3.7723,-0.39359 z m 12.69193,-0.62711 c -0.30409,-0.79246 -0.37356,-3.17566 -0.15437,-5.296 0.37857,-3.66205 0.40695,-3.61723 0.56664,0.89484 L 512,794 h 6.44521 6.44521 l 0.40689,-4.75 0.40689,-4.75 -0.1021,5 -0.1021,5 -6.76373,0.296 c -5.16791,0.22617 -6.89418,-0.0439 -7.31664,-1.14484 z m 42.86054,0.61257 c 2.6291,-0.20668 6.6791,-0.20418 9,0.006 2.32091,0.20972 0.16983,0.37882 -4.78017,0.37577 -4.95,-0.003 -6.84892,-0.17464 -4.21983,-0.38131 z m 15.11387,-0.67926 c -0.29875,-0.77854 -0.35205,-2.69104 -0.11845,-4.25 0.36097,-2.40884 0.44724,-2.27721 0.57458,0.8766 l 0.14983,3.71106 8.75,0.3333 8.75,0.3333 -8.78138,0.20563 c -6.79132,0.15904 -8.90449,-0.11515 -9.32458,-1.20989 z m 24.35596,0.67829 c 2.8875,-0.202 7.6125,-0.202 10.5,0 2.8875,0.202 0.525,0.36728 -5.25,0.36728 -5.775,0 -8.1375,-0.16528 -5.25,-0.36728 z M 511.232,767 c 0,-1.925 0.2058,-2.7125 0.45733,-1.75 0.25152,0.9625 0.25152,2.5375 0,3.5 -0.25153,0.9625 -0.45733,0.175 -0.45733,-1.75 z m 13.96295,-0.5 c 0.0204,-1.65 0.2445,-2.20394 0.49804,-1.23097 0.25354,0.97297 0.23687,2.32297 -0.0371,3 -0.27393,0.67703 -0.48137,-0.11903 -0.46099,-1.76903 z M 511.29966,756 c 0,-3.025 0.18747,-4.2625 0.41659,-2.75 0.22913,1.5125 0.22913,3.9875 0,5.5 -0.22912,1.5125 -0.41659,0.275 -0.41659,-2.75 z m 14,0 c 0,-3.025 0.18747,-4.2625 0.41659,-2.75 0.22913,1.5125 0.22913,3.9875 0,5.5 -0.22912,1.5125 -0.41659,0.275 -0.41659,-2.75 z M 511.232,734 c 0,-1.925 0.2058,-2.7125 0.45733,-1.75 0.25152,0.9625 0.25152,2.5375 0,3.5 -0.25153,0.9625 -0.45733,0.175 -0.45733,-1.75 z m 14,0 c 0,-1.925 0.2058,-2.7125 0.45733,-1.75 0.25152,0.9625 0.25152,2.5375 0,3.5 -0.25153,0.9625 -0.45733,0.175 -0.45733,-1.75 z m 43.92589,-1 c 0,-1.375 0.22698,-1.9375 0.50439,-1.25 0.27741,0.6875 0.27741,1.8125 0,2.5 -0.27741,0.6875 -0.50439,0.125 -0.50439,-1.25 z m -57.85823,-10 c 0,-3.025 0.18747,-4.2625 0.41659,-2.75 0.22913,1.5125 0.22913,3.9875 0,5.5 -0.22912,1.5125 -0.41659,0.275 -0.41659,-2.75 z m 14,0 c 0,-3.025 0.18747,-4.2625 0.41659,-2.75 0.22913,1.5125 0.22913,3.9875 0,5.5 -0.22912,1.5125 -0.41659,0.275 -0.41659,-2.75 z m 43.93234,2 c 0,-1.925 0.2058,-2.7125 0.45733,-1.75 0.25152,0.9625 0.25152,2.5375 0,3.5 -0.25153,0.9625 -0.45733,0.175 -0.45733,-1.75 z m -58,-24 c 0,-1.925 0.2058,-2.7125 0.45733,-1.75 0.25152,0.9625 0.25152,2.5375 0,3.5 -0.25153,0.9625 -0.45733,0.175 -0.45733,-1.75 z m 14,0 c 0,-1.925 0.2058,-2.7125 0.45733,-1.75 0.25152,0.9625 0.25152,2.5375 0,3.5 -0.25153,0.9625 -0.45733,0.175 -0.45733,-1.75 z m -13.93234,-11 c 0,-3.025 0.18747,-4.2625 0.41659,-2.75 0.22913,1.5125 0.22913,3.9875 0,5.5 -0.22912,1.5125 -0.41659,0.275 -0.41659,-2.75 z m 14,0 c 0,-3.025 0.18747,-4.2625 0.41659,-2.75 0.22913,1.5125 0.22913,3.9875 0,5.5 -0.22912,1.5125 -0.41659,0.275 -0.41659,-2.75 z m 43.9727,0 c 0,-2.475 0.19502,-3.4875 0.43337,-2.25 0.23836,1.2375 0.23836,3.2625 0,4.5 -0.23835,1.2375 -0.43337,0.225 -0.43337,-2.25 z M 511.4035,669 c 0.0934,-2.41938 0.32223,-2.5 7.0965,-2.5 6.9479,0 7.00091,0.0206 7.12181,2.76237 0.11157,2.52995 0.0849,2.55098 -0.31642,0.25 C 524.89125,667.13815 524.51704,667 518.5,667 c -5.81396,0 -6.40303,0.19548 -6.78007,2.25 -0.35929,1.95773 -0.40039,1.92526 -0.31643,-0.25 z m 57.85107,-1 c 0.32114,-1.18407 2.28544,-1.51426 9.32613,-1.56772 l 8.9193,-0.0677 -8.46816,0.36169 c -5.08029,0.21699 -8.8114,0.84419 -9.32613,1.56773 -0.60876,0.85571 -0.7398,0.77033 -0.45114,-0.29397 z m -14.9744,-1.73627 c 2.6291,-0.20668 6.6791,-0.20418 9,0.006 2.32091,0.20972 0.16983,0.37882 -4.78017,0.37577 -4.95,-0.003 -6.84892,-0.17464 -4.21983,-0.38131 z m 39.46983,-9.7e-4 c 2.8875,-0.202 7.6125,-0.202 10.5,0 2.8875,0.202 0.525,0.36728 -5.25,0.36728 -5.775,0 -8.1375,-0.16528 -5.25,-0.36728 z M 511.29966,659 c 0,-3.025 0.18747,-4.2625 0.41659,-2.75 0.22913,1.5125 0.22913,3.9875 0,5.5 -0.22912,1.5125 -0.41659,0.275 -0.41659,-2.75 z m 14.01021,-0.5 c 0.006,-3.3 0.1923,-4.52944 0.41486,-2.73209 0.22256,1.79735 0.21797,4.49735 -0.0102,6 -0.22818,1.50265 -0.41027,0.0321 -0.40466,-3.26791 z m 44.10845,0.5 0.0817,-4.5 8.5,-0.0583 8.5,-0.0583 -8.19677,0.3465 -8.19676,0.34649 -0.38492,4.21185 -0.38491,4.21184 0.0817,-4.5 z M 553.75,654.26779 c 2.3375,-0.21053 6.1625,-0.21053 8.5,0 2.3375,0.21054 0.425,0.3828 -4.25,0.3828 -4.675,0 -6.5875,-0.17226 -4.25,-0.3828 z m 40,-0.005 c 2.8875,-0.202 7.6125,-0.202 10.5,0 2.8875,0.202 0.525,0.36728 -5.25,0.36728 -5.775,0 -8.1375,-0.16528 -5.25,-0.36728 z m -91.4509,-12.00804 c 4.83951,-0.18371 12.48951,-0.18277 17,0.002 4.5105,0.18485 0.5509,0.33516 -8.7991,0.33401 -9.35,-0.001 -13.0404,-0.1524 -8.2009,-0.3361 z m 61.51387,-0.003 c 8.97214,-0.1659 23.37214,-0.16557 32,7.3e-4 8.62787,0.1663 1.28703,0.30204 -16.31297,0.30164 -17.6,-4e-4 -24.65916,-0.13647 -15.68703,-0.30237 z M 511.232,637 c 0,-1.925 0.2058,-2.7125 0.45733,-1.75 0.25152,0.9625 0.25152,2.5375 0,3.5 -0.25153,0.9625 -0.45733,0.175 -0.45733,-1.75 z m 14,0 c 0,-1.925 0.2058,-2.7125 0.45733,-1.75 0.25152,0.9625 0.25152,2.5375 0,3.5 -0.25153,0.9625 -0.45733,0.175 -0.45733,-1.75 z m 44,0 c 0,-1.925 0.2058,-2.7125 0.45733,-1.75 0.25152,0.9625 0.25152,2.5375 0,3.5 -0.25153,0.9625 -0.45733,0.175 -0.45733,-1.75 z m -70.5043,-5.72173 c 1.77523,-0.22091 4.92523,-0.22454 7,-0.008 2.07476,0.21648 0.6223,0.39722 -3.2277,0.40166 -3.85,0.004 -5.54754,-0.17268 -3.7723,-0.39359 z m 12.69548,-0.61786 c -0.30215,-0.78738 -0.37458,-3.39558 -0.16098,-5.79601 0.38395,-4.31461 0.39038,-4.30451 0.56309,0.8856 L 512,631 h 6.44774 6.44774 l 0.38916,-5.00566 0.38915,-5.00565 -0.0869,5.25565 -0.0869,5.25566 -6.76373,0.296 c -5.14891,0.22534 -6.89489,-0.0458 -7.31309,-1.13559 z m 42.85699,0.60332 c 2.6291,-0.20668 6.6791,-0.20418 9,0.006 2.32091,0.20972 0.16983,0.37882 -4.78017,0.37577 -4.95,-0.003 -6.84892,-0.17464 -4.21983,-0.38131 z m 20,0 c 2.6291,-0.20668 6.6791,-0.20418 9,0.006 2.32091,0.20972 0.16983,0.37882 -4.78017,0.37577 -4.95,-0.003 -6.84892,-0.17464 -4.21983,-0.38131 z m 19.46983,-9.7e-4 c 2.8875,-0.202 7.6125,-0.202 10.5,0 2.8875,0.202 0.525,0.36728 -5.25,0.36728 -5.775,0 -8.1375,-0.16528 -5.25,-0.36728 z m -71.81075,-23.82159 c 2.12416,-0.40386 3.05921,-1.23923 3.37182,-3.01237 0.37734,-2.14034 0.41701,-2.10092 0.31074,0.30883 -0.10447,2.36913 -0.58447,2.79796 -3.37181,3.01237 -3.09194,0.23784 -3.10706,0.22282 -0.31075,-0.30883 z M 511.19495,604.5 c 0.0204,-1.65 0.2445,-2.20394 0.49804,-1.23097 0.25354,0.97297 0.23687,2.32297 -0.0371,3 -0.27393,0.67703 -0.48137,-0.11903 -0.46099,-1.76903 z m 0.10471,-10.5 c 0,-3.025 0.18747,-4.2625 0.41659,-2.75 0.22913,1.5125 0.22913,3.9875 0,5.5 -0.22912,1.5125 -0.41659,0.275 -0.41659,-2.75 z m 14,0 c 0,-3.025 0.18747,-4.2625 0.41659,-2.75 0.22913,1.5125 0.22913,3.9875 0,5.5 -0.22912,1.5125 -0.41659,0.275 -0.41659,-2.75 z m 43.95252,-1.5 c 0.0111,-2.2 0.21589,-2.98225 0.45508,-1.73834 0.23919,1.24391 0.23011,3.04391 -0.0202,4 -0.25029,0.95609 -0.446,-0.0617 -0.4349,-2.26166 z m -44.43968,-6.18311 c 0.72187,-0.28887 1.58438,-0.25335 1.91667,0.0789 0.33229,0.33229 -0.25834,0.56864 -1.3125,0.52522 -1.16495,-0.048 -1.4019,-0.28494 -0.60417,-0.60416 z M 511.19495,572.5 c 0.0204,-1.65 0.2445,-2.20394 0.49804,-1.23097 0.25354,0.97297 0.23687,2.32297 -0.0371,3 -0.27393,0.67703 -0.48137,-0.11903 -0.46099,-1.76903 z m 14,0 c 0.0204,-1.65 0.2445,-2.20394 0.49804,-1.23097 0.25354,0.97297 0.23687,2.32297 -0.0371,3 -0.27393,0.67703 -0.48137,-0.11903 -0.46099,-1.76903 z m 43.96294,0.5 c 0,-1.375 0.22698,-1.9375 0.50439,-1.25 0.27741,0.6875 0.27741,1.8125 0,2.5 -0.27741,0.6875 -0.50439,0.125 -0.50439,-1.25 z m -57.85823,-11 c 0,-3.025 0.18747,-4.2625 0.41659,-2.75 0.22913,1.5125 0.22913,3.9875 0,5.5 -0.22912,1.5125 -0.41659,0.275 -0.41659,-2.75 z m 14.01021,-0.5 c 0.006,-3.3 0.1923,-4.52944 0.41486,-2.73209 0.22256,1.79735 0.21797,4.49735 -0.0102,6 -0.22818,1.50265 -0.41027,0.0321 -0.40466,-3.26791 z m 43.97614,1 c 0.008,-2.75 0.20172,-3.75631 0.43157,-2.23625 0.22986,1.52006 0.22371,3.77006 -0.0136,5 -0.23736,1.22994 -0.42542,-0.0137 -0.41792,-2.76375 z M 511.4035,539.00855 c 0.0626,-1.61539 0.71874,-2.54657 1.8661,-2.64821 1.12225,-0.0994 1.23582,0.0115 0.31047,0.30313 -0.80252,0.25294 -1.64226,1.44463 -1.8661,2.64821 -0.33524,1.80267 -0.38996,1.74924 -0.31047,-0.30313 z m 13.7125,0.79624 c -0.10657,-2.47603 -0.50228,-2.72567 -4.866,-3.06975 l -4.75,-0.37454 4.78138,-0.18025 c 5.02181,-0.18931 6.35056,0.91683 5.41919,4.51134 -0.31265,1.20668 -0.50717,0.9116 -0.58457,-0.8868 z m -26.3883,-3.52652 c 1.77523,-0.22091 4.92523,-0.22454 7,-0.008 2.07476,0.21648 0.6223,0.39722 -3.2277,0.40166 -3.85,0.004 -5.54754,-0.17268 -3.7723,-0.39359 z M 511.30987,528.5 c 0.006,-3.3 0.1923,-4.52944 0.41486,-2.73209 0.22256,1.79735 0.21797,4.49735 -0.0102,6 -0.22818,1.50265 -0.41027,0.0321 -0.40466,-3.26791 z m 14,0 c 0.006,-3.3 0.1923,-4.52944 0.41486,-2.73209 0.22256,1.79735 0.21797,4.49735 -0.0102,6 -0.22818,1.50265 -0.41027,0.0321 -0.40466,-3.26791 z m 43.76908,-2.08333 c 0.048,-1.16495 0.28494,-1.4019 0.60416,-0.60417 0.28887,0.72187 0.25335,1.58438 -0.0789,1.91667 -0.33229,0.33229 -0.56864,-0.25834 -0.52522,-1.3125 z M 511.232,507 c 0,-1.925 0.2058,-2.7125 0.45733,-1.75 0.25152,0.9625 0.25152,2.5375 0,3.5 -0.25153,0.9625 -0.45733,0.175 -0.45733,-1.75 z m 14,0 c 0,-1.925 0.2058,-2.7125 0.45733,-1.75 0.25152,0.9625 0.25152,2.5375 0,3.5 -0.25153,0.9625 -0.45733,0.175 -0.45733,-1.75 z m -26.5043,-5.72173 c 1.77523,-0.22091 4.92523,-0.22454 7,-0.008 2.07476,0.21648 0.6223,0.39722 -3.2277,0.40166 -3.85,0.004 -5.54754,-0.17268 -3.7723,-0.39359 z m 12.69193,-0.62711 c -0.30409,-0.79246 -0.37356,-3.17566 -0.15437,-5.296 0.37857,-3.66205 0.40695,-3.61723 0.56664,0.89484 L 512,501 h 6.44521 6.44521 l 0.40689,-4.75 0.40689,-4.75 -0.1021,5 -0.1021,5 -6.76373,0.296 c -5.16791,0.22617 -6.89418,-0.0439 -7.31664,-1.14484 z M 569.28601,496.5 c 0.008,-2.75 0.20172,-3.75631 0.43157,-2.23625 0.22986,1.52006 0.22371,3.77006 -0.0136,5 -0.23736,1.22994 -0.42542,-0.0138 -0.41792,-2.76375 z m -58.09106,-22 c 0.0204,-1.65 0.2445,-2.20394 0.49804,-1.23097 0.25354,0.97297 0.23687,2.32297 -0.0371,3 -0.27393,0.67703 -0.48137,-0.11903 -0.46099,-1.76903 z m 14,0 c 0.0204,-1.65 0.2445,-2.20394 0.49804,-1.23097 0.25354,0.97297 0.23687,2.32297 -0.0371,3 -0.27393,0.67703 -0.48137,-0.11903 -0.46099,-1.76903 z m -13.88508,-10 c 0.006,-3.3 0.1923,-4.52944 0.41486,-2.73209 0.22256,1.79735 0.21797,4.49735 -0.0102,6 -0.22818,1.50265 -0.41027,0.0321 -0.40466,-3.26791 z m 13.98979,-0.5 c 0,-3.025 0.18747,-4.2625 0.41659,-2.75 0.22913,1.5125 0.22913,3.9875 0,5.5 -0.22912,1.5125 -0.41659,0.275 -0.41659,-2.75 z m 43.89529,0.5 c 0.0204,-1.65 0.2445,-2.20394 0.49804,-1.23097 0.25354,0.97297 0.23687,2.32297 -0.0371,3 -0.27393,0.67703 -0.48137,-0.11903 -0.46099,-1.76903 z M 501.75,456.25601 c 4.5375,-0.18529 11.9625,-0.18529 16.5,0 4.5375,0.1853 0.825,0.3369 -8.25,0.3369 -9.075,0 -12.7875,-0.1516 -8.25,-0.3369 z M 511.19495,443.5 c 0.0204,-1.65 0.2445,-2.20394 0.49804,-1.23097 0.25354,0.97297 0.23687,2.32297 -0.0371,3 -0.27393,0.67703 -0.48137,-0.11903 -0.46099,-1.76903 z m 14,0 c 0.0204,-1.65 0.2445,-2.20394 0.49804,-1.23097 0.25354,0.97297 0.23687,2.32297 -0.0371,3 -0.27393,0.67703 -0.48137,-0.11903 -0.46099,-1.76903 z M 511.29966,433 c 0,-3.025 0.18747,-4.2625 0.41659,-2.75 0.22913,1.5125 0.22913,3.9875 0,5.5 -0.22912,1.5125 -0.41659,0.275 -0.41659,-2.75 z m 14,0 c 0,-3.025 0.18747,-4.2625 0.41659,-2.75 0.22913,1.5125 0.22913,3.9875 0,5.5 -0.22912,1.5125 -0.41659,0.275 -0.41659,-2.75 z m 43.77929,2.41667 c 0.048,-1.16495 0.28494,-1.4019 0.60416,-0.60417 0.28887,0.72187 0.25335,1.58438 -0.0789,1.91667 -0.33229,0.33229 -0.56864,-0.25834 -0.52522,-1.3125 z M 569.15789,431 c 0,-1.375 0.22698,-1.9375 0.50439,-1.25 0.27741,0.6875 0.27741,1.8125 0,2.5 -0.27741,0.6875 -0.50439,0.125 -0.50439,-1.25 z m -57.96294,-20.5 c 0.0204,-1.65 0.2445,-2.20394 0.49804,-1.23097 0.25354,0.97297 0.23687,2.32297 -0.0371,3 -0.27393,0.67703 -0.48137,-0.11903 -0.46099,-1.76903 z m 14,0 c 0.0204,-1.65 0.2445,-2.20394 0.49804,-1.23097 0.25354,0.97297 0.23687,2.32297 -0.0371,3 -0.27393,0.67703 -0.48137,-0.11903 -0.46099,-1.76903 z m 44,0 c 0.0204,-1.65 0.2445,-2.20394 0.49804,-1.23097 0.25354,0.97297 0.23687,2.32297 -0.0371,3 -0.27393,0.67703 -0.48137,-0.11903 -0.46099,-1.76903 z m -57.88508,-10 c 0.006,-3.3 0.1923,-4.52944 0.41486,-2.73209 0.22256,1.79735 0.21797,4.49735 -0.0102,6 -0.22818,1.50265 -0.41027,0.0321 -0.40466,-3.26791 z m 14,0 c 0.006,-3.3 0.1923,-4.52944 0.41486,-2.73209 0.22256,1.79735 0.21797,4.49735 -0.0102,6 -0.22818,1.50265 -0.41027,0.0321 -0.40466,-3.26791 z m 43.98979,0.5 c 0,-3.025 0.18747,-4.2625 0.41659,-2.75 0.22913,1.5125 0.22913,3.9875 0,5.5 -0.22912,1.5125 -0.41659,0.275 -0.41659,-2.75 z m -57.88908,-24 0.0894,-3.5 h 7 7 l 0.10484,3.75865 0.10485,3.75866 -0.41521,-3.50866 L 524.87927,374 H 518.5 512.12073 l -0.39979,3.25 c -0.39834,3.23818 -0.39946,3.23727 -0.31036,-0.25 z m 57.78437,-0.5 c 0.0204,-1.65 0.2445,-2.20394 0.49804,-1.23097 0.25354,0.97297 0.23687,2.32297 -0.0371,3 -0.27393,0.67703 -0.48137,-0.11903 -0.46099,-1.76903 z m -70.46725,-3.22173 c 1.77523,-0.22091 4.92523,-0.22454 7,-0.008 2.07476,0.21648 0.6223,0.39722 -3.2277,0.40166 -3.85,0.004 -5.54754,-0.17268 -3.7723,-0.39359 z M 511.30987,365.5 c 0.006,-3.3 0.1923,-4.52944 0.41486,-2.73209 0.22256,1.79735 0.21797,4.49735 -0.0102,6 -0.22818,1.50265 -0.41027,0.0321 -0.40466,-3.26791 z m 14,0 c 0.006,-3.3 0.1923,-4.52944 0.41486,-2.73209 0.22256,1.79735 0.21797,4.49735 -0.0102,6 -0.22818,1.50265 -0.41027,0.0321 -0.40466,-3.26791 z M 569.232,367 c 0,-1.925 0.2058,-2.7125 0.45733,-1.75 0.25152,0.9625 0.25152,2.5375 0,3.5 -0.25153,0.9625 -0.45733,0.175 -0.45733,-1.75 z m -57.97982,-21.5 c 0.0111,-2.2 0.21589,-2.98225 0.45508,-1.73834 0.23919,1.24391 0.23011,3.04391 -0.0202,4 -0.25029,0.95609 -0.446,-0.0617 -0.4349,-2.26166 z m 14,0 c 0.0111,-2.2 0.21589,-2.98225 0.45508,-1.73834 0.23919,1.24391 0.23011,3.04391 -0.0202,4 -0.25029,0.95609 -0.446,-0.0617 -0.4349,-2.26166 z m 44,0 c 0.0111,-2.2 0.21589,-2.98225 0.45508,-1.73834 0.23919,1.24391 0.23011,3.04391 -0.0202,4 -0.25029,0.95609 -0.446,-0.0617 -0.4349,-2.26166 z m -57.94231,-11 c 0.006,-3.3 0.1923,-4.52944 0.41486,-2.73209 0.22256,1.79735 0.21797,4.49735 -0.0102,6 -0.22818,1.50265 -0.41027,0.0321 -0.40466,-3.26791 z m 14,0 c 0.006,-3.3 0.1923,-4.52944 0.41486,-2.73209 0.22256,1.79735 0.21797,4.49735 -0.0102,6 -0.22818,1.50265 -0.41027,0.0321 -0.40466,-3.26791 z m 44,0 c 0.006,-3.3 0.1923,-4.52944 0.41486,-2.73209 0.22256,1.79735 0.21797,4.49735 -0.0102,6 -0.22818,1.50265 -0.41027,0.0321 -0.40466,-3.26791 z m -72.58217,-8.22173 c 1.77523,-0.22091 4.92523,-0.22454 7,-0.008 2.07476,0.21648 0.6223,0.39722 -3.2277,0.40166 -3.85,0.004 -5.54754,-0.17268 -3.7723,-0.39359 z m 12.54133,0.0287 c 0.97297,-0.25354 2.32297,-0.23687 3,0.0371 0.67703,0.27393 -0.11903,0.48137 -1.76903,0.46099 -1.65,-0.0204 -2.20394,-0.2445 -1.23097,-0.49804 z m 7.48097,-0.0304 c 1.7875,-0.22182 4.7125,-0.22182 6.5,0 1.7875,0.22183 0.325,0.40333 -3.25,0.40333 -3.575,0 -5.0375,-0.1815 -3.25,-0.40333 z m 38,-0.009 c 2.3375,-0.21053 6.1625,-0.21053 8.5,0 2.3375,0.21054 0.425,0.3828 -4.25,0.3828 -4.675,0 -6.5875,-0.17226 -4.25,-0.3828 z m 18,-0.005 c 2.8875,-0.202 7.6125,-0.202 10.5,0 2.8875,0.202 0.525,0.36728 -5.25,0.36728 -5.775,0 -8.1375,-0.16528 -5.25,-0.36728 z m 21.53651,-0.003 c 3.18258,-0.19905 8.13258,-0.1972 11,0.004 2.86742,0.20131 0.26349,0.36417 -5.78651,0.36191 -6.05,-0.002 -8.39607,-0.16696 -5.21349,-0.36601 z M 511.25218,312.5 c 0.0111,-2.2 0.21589,-2.98225 0.45508,-1.73834 0.23919,1.24391 0.23011,3.04391 -0.0202,4 -0.25029,0.95609 -0.446,-0.0617 -0.4349,-2.26166 z m 14,0 c 0.0111,-2.2 0.21589,-2.98225 0.45508,-1.73834 0.23919,1.24391 0.23011,3.04391 -0.0202,4 -0.25029,0.95609 -0.446,-0.0617 -0.4349,-2.26166 z M 511.32007,301 c 0,-3.575 0.1815,-5.0375 0.40333,-3.25 0.22182,1.7875 0.22182,4.7125 0,6.5 -0.22183,1.7875 -0.40333,0.325 -0.40333,-3.25 z m 13.9898,-0.5 c 0.006,-3.3 0.1923,-4.52944 0.41486,-2.73209 0.22256,1.79735 0.21797,4.49735 -0.0102,6 -0.22818,1.50265 -0.41027,0.0321 -0.40466,-3.26791 z M 511.232,280 c 0,-1.925 0.2058,-2.7125 0.45733,-1.75 0.25152,0.9625 0.25152,2.5375 0,3.5 -0.25153,0.9625 -0.45733,0.175 -0.45733,-1.75 z m 14,0 c 0,-1.925 0.2058,-2.7125 0.45733,-1.75 0.25152,0.9625 0.25152,2.5375 0,3.5 -0.25153,0.9625 -0.45733,0.175 -0.45733,-1.75 z m -13.93234,-11 c 0,-3.025 0.18747,-4.2625 0.41659,-2.75 0.22913,1.5125 0.22913,3.9875 0,5.5 -0.22912,1.5125 -0.41659,0.275 -0.41659,-2.75 z m 14,0 c 0,-3.025 0.18747,-4.2625 0.41659,-2.75 0.22913,1.5125 0.22913,3.9875 0,5.5 -0.22912,1.5125 -0.41659,0.275 -0.41659,-2.75 z m 43.95252,-0.5 c 0.0111,-2.2 0.21589,-2.98225 0.45508,-1.73834 0.23919,1.24391 0.23011,3.04391 -0.0202,4 -0.25029,0.95609 -0.446,-0.0617 -0.4349,-2.26166 z m -57.85046,-20 c 0.0885,-1.80016 0.79771,-2 7.09828,-2 6.75632,0 7.0057,0.087 7.1638,2.5 0.14435,2.20304 0.10639,2.23274 -0.31955,0.25 C 524.90454,247.20314 524.2866,247 518.5,247 c -5.23216,0 -6.43504,0.31054 -6.77873,1.75 -0.31806,1.33212 -0.39437,1.27243 -0.31955,-0.25 z m 57.59646,-1.75 c 10e-4,-0.4125 4.16432,-0.67798 9.25182,-0.58996 9.40455,0.16271 8.28448,0.55878 -3.00182,1.06149 -3.4385,0.15316 -6.251,-0.059 -6.25,-0.47153 z m -70.27048,-0.47173 c 1.77523,-0.22091 4.92523,-0.22454 7,-0.008 2.07476,0.21648 0.6223,0.39722 -3.2277,0.40166 -3.85,0.004 -5.54754,-0.17268 -3.7723,-0.39359 z m 55.55247,-0.0145 c 2.6291,-0.20668 6.6791,-0.20418 9,0.006 2.32091,0.20972 0.16983,0.37882 -4.78017,0.37577 -4.95,-0.003 -6.84892,-0.17464 -4.21983,-0.38131 z M 593.75,246.2628 c 2.8875,-0.202 7.6125,-0.202 10.5,0 2.8875,0.202 0.525,0.36728 -5.25,0.36728 -5.775,0 -8.1375,-0.16528 -5.25,-0.36728 z M 511.30987,238.5 c 0.006,-3.3 0.1923,-4.52944 0.41486,-2.73209 0.22256,1.79735 0.21797,4.49735 -0.0102,6 -0.22818,1.50265 -0.41027,0.0321 -0.40466,-3.26791 z m 14,0 c 0.006,-3.3 0.1923,-4.52944 0.41486,-2.73209 0.22256,1.79735 0.21797,4.49735 -0.0102,6 -0.22818,1.50265 -0.41027,0.0321 -0.40466,-3.26791 z m 44,0 c 0.006,-3.3 0.1923,-4.52944 0.41486,-2.73209 0.22256,1.79735 0.21797,4.49735 -0.0102,6 -0.22818,1.50265 -0.41027,0.0321 -0.40466,-3.26791 z"
         id="path26" />
      <path
         style="fill:#ffffff;fill-opacity:1"
         d="m 525.87244,809.25 c -1.24387,-1.58606 -1.2085,-1.62143 0.37756,-0.37756 0.9625,0.75485 1.75,1.54235 1.75,1.75 0,0.82304 -0.82119,0.29331 -2.12756,-1.37244 z m -24.07496,-60.99475 c 4.56362,-0.18572 11.76362,-0.18468 16,0.002 4.23639,0.18698 0.50252,0.33893 -8.29748,0.33766 -8.8,-10e-4 -12.26613,-0.15425 -7.70252,-0.33996 z M 498.7277,569.27827 c 1.77523,-0.22091 4.92523,-0.22454 7,-0.008 2.07476,0.21648 0.6223,0.39722 -3.2277,0.40166 -3.85,0.004 -5.54754,-0.17268 -3.7723,-0.39359 z m 16,0 c 1.77523,-0.22091 4.92523,-0.22454 7,-0.008 2.07476,0.21648 0.6223,0.39722 -3.2277,0.40166 -3.85,0.004 -5.54754,-0.17268 -3.7723,-0.39359 z m 39.55247,-0.0145 c 2.6291,-0.20668 6.6791,-0.20418 9,0.006 2.32091,0.20972 0.16983,0.37882 -4.78017,0.37577 -4.95,-0.003 -6.84892,-0.17464 -4.21983,-0.38131 z m 20,0 c 2.6291,-0.20668 6.6791,-0.20418 9,0.006 2.32091,0.20972 0.16983,0.37882 -4.78017,0.37577 -4.95,-0.003 -6.84892,-0.17464 -4.21983,-0.38131 z M 593.75,569.2628 c 2.8875,-0.202 7.6125,-0.202 10.5,0 2.8875,0.202 0.525,0.36728 -5.25,0.36728 -5.775,0 -8.1375,-0.16528 -5.25,-0.36728 z m -39.46983,-11.99903 c 2.6291,-0.20668 6.6791,-0.20418 9,0.006 2.32091,0.20972 0.16983,0.37882 -4.78017,0.37577 -4.95,-0.003 -6.84892,-0.17464 -4.21983,-0.38131 z m 20,0 c 2.6291,-0.20668 6.6791,-0.20418 9,0.006 2.32091,0.20972 0.16983,0.37882 -4.78017,0.37577 -4.95,-0.003 -6.84892,-0.17464 -4.21983,-0.38131 z M 593.75,557.2628 c 2.8875,-0.202 7.6125,-0.202 10.5,0 2.8875,0.202 0.525,0.36728 -5.25,0.36728 -5.775,0 -8.1375,-0.16528 -5.25,-0.36728 z m -29.93703,-12.01127 c 8.97214,-0.1659 23.37214,-0.16557 32,7.3e-4 8.62787,0.1663 1.28703,0.30204 -16.31297,0.30164 -17.6,-4e-4 -24.65916,-0.13647 -15.68703,-0.30237 z m -9.5328,-20.98776 c 2.6291,-0.20668 6.6791,-0.20418 9,0.006 2.32091,0.20972 0.16983,0.37882 -4.78017,0.37577 -4.95,-0.003 -6.84892,-0.17464 -4.21983,-0.38131 z m 18.96983,10e-4 c 2.6125,-0.206 6.8875,-0.206 9.5,0 2.6125,0.206 0.475,0.37454 -4.75,0.37454 -5.225,0 -7.3625,-0.16854 -4.75,-0.37454 z m 20.5,-0.002 c 2.8875,-0.202 7.6125,-0.202 10.5,0 2.8875,0.202 0.525,0.36728 -5.25,0.36728 -5.775,0 -8.1375,-0.16528 -5.25,-0.36728 z m -91.4509,-12.00804 c 4.83951,-0.18371 12.48951,-0.18277 17,0.002 4.5105,0.18485 0.5509,0.33516 -8.7991,0.33401 -9.35,-10e-4 -13.0404,-0.1524 -8.2009,-0.3361 z M 494.99938,394.75 c 3.4e-4,-0.4125 3.26312,-0.68872 7.25062,-0.61382 7.63482,0.14341 6.80196,0.59096 -2.00062,1.07506 -2.88784,0.15882 -5.25034,-0.0487 -5.25,-0.46124 z m 18.77705,-0.4835 c 2.35204,-0.21124 5.95204,-0.20827 8,0.007 2.04796,0.21487 0.12357,0.38771 -4.27643,0.38408 -4.4,-0.004 -6.07561,-0.17944 -3.72357,-0.39069 z m 40.50374,-33.00277 c 2.6291,-0.20668 6.6791,-0.20418 9,0.006 2.32091,0.20972 0.16983,0.37882 -4.78017,0.37577 -4.95,-0.003 -6.84892,-0.17464 -4.21983,-0.38131 z m 20,0 c 2.6291,-0.20668 6.6791,-0.20418 9,0.006 2.32091,0.20972 0.16983,0.37882 -4.78017,0.37577 -4.95,-0.003 -6.84892,-0.17464 -4.21983,-0.38131 z m 19.46983,-9.7e-4 c 2.8875,-0.202 7.6125,-0.202 10.5,0 2.8875,0.202 0.525,0.36728 -5.25,0.36728 -5.775,0 -8.1375,-0.16528 -5.25,-0.36728 z M 523.32158,135.25047 c 16.40187,-0.15425 42.95187,-0.15414 59,2.4e-4 16.04813,0.15438 2.62842,0.28058 -29.82158,0.28045 -32.45,-1.4e-4 -45.58029,-0.12645 -29.17842,-0.28069 z"
         id="path24" />
      <path
         style="fill:#ffffff;fill-opacity:1"
         d="m 553.25,847.26496 c 2.6125,-0.206 6.8875,-0.206 9.5,0 2.6125,0.206 0.475,0.37454 -4.75,0.37454 -5.225,0 -7.3625,-0.16854 -4.75,-0.37454 z m 7.43554,-1.97665 c 3.62044,-0.22265 6.35588,-0.87967 6.59629,-1.58435 0.22592,-0.66218 0.3629,-0.52896 0.30442,0.29604 -0.0821,1.15889 -1.58222,1.51918 -6.59629,1.58436 l -6.48996,0.0844 6.18554,-0.38041 z M 567.15789,839 c 0,-1.375 0.22698,-1.9375 0.50439,-1.25 0.27741,0.6875 0.27741,1.8125 0,2.5 -0.27741,0.6875 -0.50439,0.125 -0.50439,-1.25 z M 502.79748,715.25525 c 4.56362,-0.18572 11.76362,-0.18468 16,0.002 4.23639,0.18698 0.50252,0.33893 -8.29748,0.33766 -8.8,-10e-4 -12.26613,-0.15425 -7.70252,-0.33996 z m -4.06978,-30.97698 c 1.77523,-0.22091 4.92523,-0.22454 7,-0.008 2.07476,0.21648 0.6223,0.39722 -3.2277,0.40166 -3.85,0.004 -5.54754,-0.17268 -3.7723,-0.39359 z m 16,0 c 1.77523,-0.22091 4.92523,-0.22454 7,-0.008 2.07476,0.21648 0.6223,0.39722 -3.2277,0.40166 -3.85,0.004 -5.54754,-0.17268 -3.7723,-0.39359 z m -12.4286,-2.02355 c 4.83951,-0.18371 12.48951,-0.18277 17,0.002 4.5105,0.18485 0.5509,0.33516 -8.7991,0.33401 -9.35,-10e-4 -13.0404,-0.1524 -8.2009,-0.3361 z m -1.99716,-456.00085 c 5.39107,-0.18015 13.94107,-0.17936 19,0.002 5.05893,0.18111 0.64806,0.32851 -9.80194,0.32755 -10.45,-9.6e-4 -14.58913,-0.14915 -9.19806,-0.3293 z m 29.97823,-48.99014 c 2.6291,-0.20668 6.6791,-0.20418 9,0.006 2.32091,0.20972 0.16983,0.37882 -4.78017,0.37577 -4.95,-0.003 -6.84892,-0.17464 -4.21983,-0.38131 z"
         id="path22" />
      <path
         style="fill:#ffffff;fill-opacity:1"
         d="m 567.8125,847.31689 c 0.72187,-0.28887 1.58438,-0.25335 1.91667,0.0789 0.33229,0.33229 -0.25834,0.56864 -1.3125,0.52522 -1.16495,-0.048 -1.4019,-0.28494 -0.60417,-0.60416 z M 554.77643,543.2665 c 2.35204,-0.21124 5.95204,-0.20827 8,0.007 2.04796,0.21487 0.12357,0.38771 -4.27643,0.38408 -4.4,-0.004 -6.07561,-0.17944 -3.72357,-0.39069 z m 18.97357,0.001 c 2.3375,-0.21053 6.1625,-0.21053 8.5,0 2.3375,0.21054 0.425,0.3828 -4.25,0.3828 -4.675,0 -6.5875,-0.17226 -4.25,-0.3828 z m 21.02643,-0.001 c 2.35204,-0.21124 5.95204,-0.20827 8,0.007 2.04796,0.21487 0.12357,0.38771 -4.27643,0.38408 -4.4,-0.004 -6.07561,-0.17944 -3.72357,-0.39069 z M 500.25,425.26101 c 3.1625,-0.19845 8.3375,-0.19845 11.5,0 3.1625,0.19845 0.575,0.36082 -5.75,0.36082 -6.325,0 -8.9125,-0.16237 -5.75,-0.36082 z m -1.5223,-11.98274 c 1.77523,-0.22091 4.92523,-0.22454 7,-0.008 2.07476,0.21648 0.6223,0.39722 -3.2277,0.40166 -3.85,0.004 -5.54754,-0.17268 -3.7723,-0.39359 z m 16,0 c 1.77523,-0.22091 4.92523,-0.22454 7,-0.008 2.07476,0.21648 0.6223,0.39722 -3.2277,0.40166 -3.85,0.004 -5.54754,-0.17268 -3.7723,-0.39359 z m 39.55247,-0.0145 c 2.6291,-0.20668 6.6791,-0.20418 9,0.006 2.32091,0.20972 0.16983,0.37882 -4.78017,0.37577 -4.95,-0.003 -6.84892,-0.17464 -4.21983,-0.38131 z m 20,0 c 2.6291,-0.20668 6.6791,-0.20418 9,0.006 2.32091,0.20972 0.16983,0.37882 -4.78017,0.37577 -4.95,-0.003 -6.84892,-0.17464 -4.21983,-0.38131 z M 593.75,413.2628 c 2.8875,-0.202 7.6125,-0.202 10.5,0 2.8875,0.202 0.525,0.36728 -5.25,0.36728 -5.775,0 -8.1375,-0.16528 -5.25,-0.36728 z m -83,-20.92504 c 0.6875,-0.27741 1.8125,-0.27741 2.5,0 0.6875,0.27741 0.125,0.50439 -1.25,0.50439 -1.375,0 -1.9375,-0.22698 -1.25,-0.50439 z m 43.53017,-115.07399 c 2.6291,-0.20668 6.6791,-0.20418 9,0.006 2.32091,0.20972 0.16983,0.37882 -4.78017,0.37577 -4.95,-0.003 -6.84892,-0.17464 -4.21983,-0.38131 z m 20,0 c 2.6291,-0.20668 6.6791,-0.20418 9,0.006 2.32091,0.20972 0.16983,0.37882 -4.78017,0.37577 -4.95,-0.003 -6.84892,-0.17464 -4.21983,-0.38131 z m 20.50335,-0.002 c 2.90594,-0.20265 7.40594,-0.20052 10,0.005 2.59406,0.20525 0.21648,0.37104 -5.28352,0.36844 -5.5,-0.003 -7.62242,-0.17053 -4.71648,-0.37317 z M 487.25218,222.5 c 0.0111,-2.2 0.21589,-2.98225 0.45508,-1.73834 0.23919,1.24391 0.23011,3.04391 -0.0202,4 -0.25029,0.95609 -0.446,-0.0617 -0.4349,-2.26166 z"
         id="path20" />
      <path
         style="fill:#ffffff;fill-opacity:1"
         d="m 496.26375,392.28242 c 1.52006,-0.22986 3.77006,-0.22371 5,0.0136 1.22994,0.23736 -0.0138,0.42542 -2.76375,0.41792 -2.75,-0.008 -3.75631,-0.20172 -2.23625,-0.43157 z m 22.98625,0.0283 c 0.9625,-0.25152 2.5375,-0.25152 3.5,0 0.9625,0.25153 0.175,0.45733 -1.75,0.45733 -1.925,0 -2.7125,-0.2058 -1.75,-0.45733 z"
         id="path18" />
      <path
         style="fill:#ffffff;fill-opacity:1"
         d="m 545.1957,1144.2926 c -3.35,-6.5253 -12.44253,-37.6694 -14.15615,-48.4882 -0.58329,-3.6825 -1.33302,-7.4056 -1.66607,-8.2735 -0.73401,-1.9128 -3.34767,-1.5648 -18.37348,2.4462 -5.775,1.5416 -13.425,3.5145 -17,4.3844 -11.0868,2.6975 -26.03551,6.5938 -37.14122,9.6807 -5.85268,1.6268 -11.31834,2.9578 -12.14593,2.9578 -0.82759,0 -7.06404,1.529 -13.85878,3.3977 -6.79474,1.8687 -18.87907,5.0577 -26.85407,7.0867 -7.975,2.0289 -20.28783,5.2334 -27.36184,7.121 -7.07401,1.8877 -14.94901,3.5362 -17.5,3.6634 L 354.5,1128.5 354.64184,1118 c 0.25133,-18.6052 2.75935,-23.7178 16.02679,-32.6706 4.85725,-3.2776 15.94903,-10.8801 24.64838,-16.8944 8.69936,-6.0142 19.55892,-13.41 24.13236,-16.435 4.57344,-3.025 18.1356,-12.25 30.13814,-20.5 12.00255,-8.25 28.59299,-19.5941 36.86765,-25.209 8.27466,-5.615 15.82942,-11.24001 16.78836,-12.50004 2.39961,-3.15306 3.7258,-11.06673 2.61406,-15.59866 -0.49817,-2.03077 -1.50729,-7.0673 -2.24248,-11.1923 -0.7352,-4.125 -2.48714,-12.675 -3.89321,-19 -13.75991,-61.89716 -14.67978,-76.30056 -14.70484,-230.25 L 485,613 h -27.36191 -27.3619 l -0.67958,6.75 c -0.8225,8.1695 -2.08095,13.16254 -3.96794,15.74315 -2.96985,4.06151 -5.14478,-1.17751 -7.15834,-17.24315 L 417.81232,613 h -17.18204 -17.18204 l -1.97412,4.25 c -2.81273,6.05542 -4.92276,5.63058 -7.44997,-1.5 L 373.0495,613 h -10.42306 c -8.86878,0 -11.66846,0.42789 -18.77475,2.86946 -9.78273,3.36114 -30.20543,9.68719 -33.96133,10.51973 -2.35941,0.52299 -2.66093,1.13137 -3.14439,6.34464 -0.29411,3.17139 -1.30613,7.67867 -2.24894,10.01617 -3.17063,7.86096 -6.13843,4.91428 -8.93944,-8.8758 l -0.53335,-2.6258 -6.26212,1.74717 c -3.44417,0.96094 -10.08712,2.95381 -14.76212,4.42859 -9.38455,2.96046 -24.17861,7.48194 -42.5,12.98919 -6.6,1.98391 -16.275,4.93221 -21.5,6.55179 -5.225,1.61958 -12.7625,3.90243 -16.75,5.07301 -6.34137,1.86158 -7.25,2.42305 -7.25,4.47998 0,3.03969 -1.71143,7.50552 -3.73192,9.73814 -1.48699,1.6431 -1.71469,1.64953 -3.43039,0.0968 C 177.66108,675.2883 177,673.30683 177,670.84501 177,668.73026 176.8187,667 176.59711,667 c -0.22158,0 -4.38408,1.30267 -9.25,2.89482 -4.86591,1.59216 -15.14711,4.79472 -22.84711,7.11681 -7.7,2.3221 -18.725,5.72493 -24.5,7.56186 -5.775,1.83693 -15.9,4.98082 -22.5,6.98642 -6.6,2.0056 -16.05,4.90493 -21,6.44297 -4.95,1.53804 -15.3,4.68681 -23,6.99727 -7.7,2.31046 -17.376534,5.28062 -21.503409,6.60035 -4.126876,1.31972 -8.064376,2.3995 -8.75,2.3995 -3.422594,0 0.187809,-27.62312 5.248737,-40.15798 C 34.470139,659.04366 40.612407,652.63824 56.78517,644.34019 62.128327,641.59868 73.925,635.51312 83,630.81672 c 9.075,-4.69639 24.15,-12.47969 33.5,-17.29621 9.35,-4.81653 23.525,-12.24812 31.5,-16.51465 7.975,-4.26653 19.675,-10.44908 26,-13.73898 6.325,-3.28991 17.35,-9.04312 24.5,-12.78491 7.15,-3.74179 19.075,-9.94469 26.5,-13.78421 37.06785,-19.16809 56.81832,-29.43644 71.5,-37.17312 4.4,-2.31864 18.35,-9.52664 31,-16.01778 12.65,-6.49114 23.39666,-12.15482 23.88148,-12.58595 0.49886,-0.44362 -0.25669,-5.47973 -1.74067,-11.60239 -3.19995,-13.20244 -7.24138,-37.96955 -8.61877,-52.81852 -1.98637,-21.41395 -1.07797,-33.01688 3.70209,-47.28678 2.16439,-6.46133 3.69982,-9.19366 6.9702,-12.40357 l 4.19432,-4.11679 17.39131,-0.4784 c 9.56522,-0.26312 21.38652,-0.1456 26.26954,0.26116 8.77546,0.73099 8.92233,0.7875 12.68771,4.88196 4.37364,4.75589 6.98287,12.05686 8.83448,24.72014 1.41441,9.67317 0.64347,34.52545 -1.48658,47.92228 -0.74331,4.675 -1.2086,8.65794 -1.03397,8.85099 0.17463,0.19304 1.80956,-0.74581 3.63318,-2.08633 1.82362,-1.34053 5.56568,-3.70261 8.31568,-5.24908 2.75,-1.54647 7.925,-4.70682 11.5,-7.023 3.575,-2.31618 12.35,-7.85858 19.5,-12.31645 7.15,-4.45786 14.64798,-9.30275 16.66217,-10.76643 7.03463,-5.11192 6.67227,0.67396 7.16522,-114.4097 0.37006,-86.39467 0.71568,-106.22694 2.09125,-120 0.90635,-9.075 2.05093,-20.98172 2.54351,-26.45938 2.14448,-23.84767 11.33891,-69.119315 17.2713,-85.04062 7.83419,-21.025338 16.54513,-37.22465 26.00905,-48.367787 4.98179,-5.865726 7.55437,-7.9676957 12.61878,-10.3104135 l 6.36129,-2.9426271 5.12216,1.8104138 C 566.97098,9.0919596 580.09393,24.785481 588.54375,43 c 1.40331,3.025 3.42837,7.3 4.50012,9.5 4.09346,8.40269 8.95871,23.583898 12.33841,38.5 3.18296,14.0478 4.61682,22.20586 9.13951,52 4.05185,26.69247 4.74564,47.21164 5.20694,153.99783 0.42703,98.85634 0.5319,103.68402 2.33839,107.64951 1.04022,2.28342 3.58816,5.45816 5.66209,7.05497 4.01315,3.0899 17.02848,11.29769 17.91507,11.29769 0.29082,0 2.40233,1.30949 4.69224,2.90998 2.28992,1.60049 7.98848,5.28199 12.66348,8.18111 C 680.25674,444.79256 687.15409,449 687.44053,449 c 0.16155,0 -0.54385,-4.5797 -1.56755,-10.17711 -5.57753,-30.49697 -2.34515,-60.45242 7.72519,-71.5916 l 4.09817,-4.53314 17.48746,-0.48104 c 9.61811,-0.26458 21.49202,-0.14747 26.38647,0.26024 l 8.899,0.74128 3.98147,4.43084 c 7.95875,8.85703 11.26495,24.76261 10.21788,49.15652 -0.74016,17.24359 -4.47349,44.34367 -8.15347,59.18571 -1.43074,5.77044 -2.46945,11.56803 -2.30825,12.88354 0.29825,2.43387 3.92583,4.47164 49.2931,27.69014 6.05,3.09633 16.4,8.45235 23,11.90227 24.58713,12.85205 53.66057,27.96132 78,40.53605 8.8,4.54644 19.15,9.93933 23,11.9842 25.5803,13.58662 43.98037,23.19529 71,37.07678 7.15,3.67335 17.95,9.26855 24,12.43379 6.05,3.16523 16.5836,8.62377 23.408,12.13007 19.439,9.98758 22.8697,13.15025 29.9624,27.62185 4.1945,8.55825 5.2797,11.9701 6.5765,20.67575 1.8439,12.37821 2.0473,23.07386 0.4388,23.07386 -1.0382,0 -8.1174,-2.09845 -30.3857,-9.0071 -4.95,-1.53572 -15.3,-4.68252 -23,-6.9929 -7.7,-2.31038 -18.05,-5.47249 -23,-7.0269 -4.95,-1.55442 -14.4,-4.47055 -21,-6.48028 -22.7698,-6.93352 -52.13664,-16.10058 -55.25,-17.24665 -0.84442,-0.31085 -1.25,0.638 -1.25,2.92433 0,1.86147 -0.70163,4.3862 -1.55917,5.61051 -2.44611,3.49232 -5.04307,1.35544 -6.55311,-5.39213 -1.16266,-5.19529 -1.56348,-5.74849 -5.32253,-7.34595 -2.23586,-0.95015 -5.41519,-2.04109 -7.06519,-2.42431 -1.65,-0.38322 -7.5,-2.06424 -13,-3.7356 -13.80065,-4.1938 -29.4503,-8.90816 -46,-13.85722 -7.7,-2.30262 -17.15,-5.23875 -21,-6.52472 -3.85,-1.28597 -8.94065,-2.84972 -11.31255,-3.47499 -2.3719,-0.62528 -4.90426,-1.36392 -5.62746,-1.64144 -0.92234,-0.35394 -1.52919,0.93145 -2.03262,4.30538 -1.48738,9.96824 -4.95934,14.10837 -7.63648,9.1061 -1.61899,-3.02512 -3.8646,-11.71318 -3.87902,-15.00759 -0.0103,-2.34804 -0.58149,-2.85837 -4.26187,-3.80762 -2.3375,-0.60289 -8.075,-2.3621 -12.75,-3.90935 C 753.70427,613.0377 753.5467,613 743.08404,613 h -9.99045 l -1.99057,4.5 c -1.09481,2.475 -2.43372,4.5 -2.97536,4.5 -1.72032,0 -3.94163,-2.8765 -4.6254,-5.98971 L 722.84109,613 h -17.77505 -17.77505 l -1.23648,10.4333 c -0.68007,5.73832 -1.82989,11.24484 -2.55518,12.23673 -1.26947,1.73611 -1.39286,1.7363 -3.3058,0.005 -2.23526,-2.02288 -3.73732,-7.20697 -4.75909,-16.42514 l -0.69277,-6.25 h -27.30048 -27.30048 l -0.42889,121.75 c -0.35435,100.59044 -0.71224,125.3128 -2.05928,142.25 -0.89671,11.275 -1.84914,21.625 -2.11652,23 -4.16672,21.4281 -11.10018,55.00144 -14.55943,70.5 -3.83945,17.20197 -2.59049,21.89812 7.6509,28.76768 3.77988,2.53543 11.82251,8.02363 17.87251,12.19603 6.05,4.1725 15.275,10.4856 20.5,14.0293 17.80808,12.0776 53.10842,36.145 68.5,46.7024 5.5,3.7726 13.6,9.2608 18,12.1959 14.08377,9.3949 16.17491,13.2486 17.16323,31.6294 0.57111,10.6214 0.45702,11.9959 -1.04347,12.5717 -2.12425,0.8152 -5.55069,-0.017 -87.11976,-21.1543 -12.1,-3.1356 -24.475,-6.2754 -27.5,-6.9775 -3.025,-0.7021 -12.7,-3.1487 -21.5,-5.437 -8.8,-2.2883 -20.21176,-5.2547 -25.35948,-6.592 -5.14771,-1.3374 -9.93513,-2.4316 -10.63871,-2.4316 -0.70357,0 -1.57506,1.6875 -1.93664,3.75 -1.42217,8.1123 -8.79842,36.2834 -11.97908,45.75 l -3.35987,10 -7.05511,0.2926 c -5.95646,0.2471 -7.19842,0.014 -7.97541,-1.5 z m 15.84233,-8.7926 c 3.64624,-10.4684 8.29542,-28.0384 11.37815,-43 4.83454,-23.4637 8.57927,-41.1244 10.60185,-50 1.12801,-4.95 2.88408,-13.05 3.90238,-18 3.69064,-17.9403 6.33298,-30.24244 9.12844,-42.5 1.56791,-6.875 3.14565,-14.3 3.50608,-16.5 0.36043,-2.2 1.7044,-8.33885 2.98659,-13.64189 1.2822,-5.30305 2.82466,-12.50305 3.42769,-16 0.60303,-3.49696 1.33277,-7.55173 1.62164,-9.0106 0.52468,-2.64973 0.51451,-2.64707 -9.78281,2.55817 -5.66942,2.86587 -15.97959,6.96736 -22.91147,9.11443 l -12.60344,3.90377 -0.59634,26.03806 c -0.32799,14.32093 -1.49259,40.88806 -2.588,59.03806 -1.91111,31.6654 -4.10983,73.5354 -4.10912,78.25 2.5e-4,1.6864 -0.58037,2.25 -2.31799,2.25 h -2.31832 l -1.21015,-24.25 c -0.66557,-13.3375 -1.85086,-35.725 -2.63396,-49.75 -1.36646,-24.4725 -3.55666,-78.89603 -3.53138,-87.75 0.009,-3.2307 -0.37084,-4.25 -1.58469,-4.25 -3.78311,0 -25.78961,-8.18935 -34.83019,-12.96147 -5.4166,-2.85918 -9.62599,-4.60002 -9.35421,-3.86852 0.27178,0.73149 1.06984,4.47999 1.77346,8.32999 0.70362,3.85 2.59559,12.85 4.20437,20 1.60878,7.15 3.37134,15.475 3.91681,18.5 0.54547,3.025 2.27352,11.125 3.84012,18 1.5666,6.875 3.79012,17 4.94114,22.5 4.49306,21.4693 5.34275,25.4294 8.15335,38 1.59863,7.15 4.01355,18.4 5.36647,25 5.50506,26.8555 7.81961,36.9595 10.14417,44.2837 1.34273,4.2306 2.44133,8.2687 2.44133,8.9735 0,0.7048 1.22967,4.4421 2.73259,8.3051 l 2.73259,7.0236 5.39318,-0.2929 5.39319,-0.293 z M 366,1124.6373 c 5.48144,-1.2736 5.50102,-1.2917 5.80327,-5.3711 0.20114,-2.7148 0.87464,-4.3221 2,-4.7732 0.9332,-0.374 10.69673,-3.8288 21.69673,-7.6772 29.07032,-10.1704 37.64722,-13.1956 50.5,-17.8118 6.325,-2.2717 13.975,-4.9581 17,-5.9698 14.96243,-5.004 60.23568,-21.0356 60.79197,-21.5269 0.16059,-0.1419 -0.83211,-4.801 -2.20598,-10.3537 -1.37387,-5.5526 -3.19868,-13.7897 -4.05513,-18.3045 -0.85644,-4.5148 -1.74018,-8.3917 -1.96385,-8.6154 -0.22367,-0.2237 -9.10525,4.3054 -19.73684,10.0645 -37.70703,20.426 -55.39921,30.0299 -60.83017,33.0205 -3.025,1.6657 -8.425,4.574 -12,6.4629 -3.575,1.8888 -9.2,4.8859 -12.5,6.6602 -3.3,1.7744 -10.97598,5.8883 -17.05773,9.1421 -6.08175,3.2539 -15.57568,8.3616 -21.09762,11.3505 l -10.03989,5.4343 -2.16848,9.0657 c -1.19266,4.9861 -2.16123,9.4031 -2.15238,9.8156 0.0217,1.0106 1.52429,0.8957 8.0161,-0.6127 z m 379.26653,-8.4174 c -2.69008,-10.8045 -1.81261,-9.8105 -14.76653,-16.7274 -3.3,-1.7621 -8.025,-4.3243 -10.5,-5.6937 -5.28803,-2.926 -57.29435,-30.8168 -66.30514,-35.5592 -6.23846,-3.2834 -13.13289,-7.0371 -24.19486,-13.173 -5.05761,-2.8054 -28.25342,-15.3333 -36.4283,-19.6747 -2.78205,-1.4774 -4.0717,-1.0206 -4.0717,1.4422 0,0.9438 -1.31062,7.1048 -2.9125,13.691 -1.60187,6.5862 -3.21723,14.0408 -3.58968,16.5658 l -0.67718,4.5908 10.33968,3.7497 c 20.3466,7.3787 26.42512,9.5263 32.33968,11.4262 3.3,1.0601 11.85,4.0299 19,6.5997 7.15,2.5698 16.15,5.7423 20,7.0501 3.85,1.3078 11.95,4.1532 18,6.3232 6.05,2.17 13.25,4.7158 16,5.6574 2.75,0.9416 8.6,2.9748 13,4.5181 4.4,1.5433 11.46343,4.0102 15.69651,5.4819 l 7.6965,2.6759 0.3035,4.1196 c 0.29866,4.054 0.38301,4.1383 5.30349,5.2992 8.8864,2.0967 8.5075,2.6462 5.76653,-8.3628 z M 418,1111.3655 c 20.625,-5.229 45.375,-11.5437 55,-14.0326 9.625,-2.4889 21.89848,-5.5739 27.27441,-6.8556 10.05808,-2.3979 26.73986,-7.1582 27.40072,-7.8191 0.20479,-0.2048 -0.46623,-4.1492 -1.49117,-8.7653 -1.82152,-8.2038 -1.9272,-8.3881 -4.68971,-8.1819 -1.55441,0.116 -6.91401,1.7569 -11.91022,3.6464 -4.99622,1.8894 -9.98403,3.6648 -11.08403,3.9452 -1.1,0.2804 -9.2,3.0674 -18,6.1932 -8.8,3.1258 -18.475,6.5071 -21.5,7.5139 -5.88745,1.9595 -18.46233,6.3769 -37,12.9978 -6.325,2.259 -14.65,5.1774 -18.5,6.4852 -28.02967,9.5213 -28.97817,9.9513 -29.30942,13.2864 -0.30724,3.0934 -0.28605,3.1082 3,2.1046 1.82018,-0.556 20.18442,-5.2891 40.80942,-10.5182 z m 312.81642,7.8845 c -0.2819,-2.45 -1.13461,-3.0314 -7.81642,-5.3294 -4.125,-1.4187 -12,-4.1784 -17.5,-6.1327 -5.5,-1.9543 -25.75,-9.0443 -45,-15.7555 -44.89513,-15.652 -52.94472,-18.4714 -64.5,-22.5912 -14.3803,-5.1271 -14.78682,-5.1738 -15.58108,-1.7887 -0.36746,1.5661 -1.28704,5.3045 -2.04352,8.3076 -0.75647,3.0031 -1.3754,5.7807 -1.3754,6.1724 0,0.9843 4.0535,2.2333 22,6.7793 8.525,2.1595 29,7.3993 45.5,11.644 16.5,4.2447 33.375,8.5116 37.5,9.4818 11.76327,2.7669 31.86236,7.8718 39,9.9054 9.34983,2.6639 10.19581,2.6042 9.81642,-0.693 z m 17.19422,-10.175 c -0.88054,-6.2086 -3.85372,-14.7688 -3.9706,-11.432 -0.0453,1.292 2.83225,16.1115 3.54364,18.2501 1.13593,3.415 1.3633,-0.216 0.42696,-6.8181 z m -388.00716,-3.0913 c 2.40896,-11.2726 2.4088,-11.4312 -0.007,-6.8597 -1.7666,3.3431 -4.08114,18.1195 -2.62981,16.7892 0.35211,-0.3228 1.53864,-4.791 2.63673,-9.9295 z M 553.76962,1072 c 0.0328,-20.6278 -0.81594,-28.6208 -2.08238,-19.6104 -0.90244,6.4206 -0.87485,26.1741 0.0583,41.7034 l 0.7455,12.407 0.6238,-7.5 c 0.34309,-4.125 0.63776,-16.275 0.65483,-27 z m -187.29317,30.0381 c 0.32696,-0.529 6.99102,-4.3543 14.80902,-8.5005 7.81799,-4.1462 15.33953,-8.19 16.71453,-8.9861 1.375,-0.7962 19.6,-10.6378 40.5,-21.8703 68.05438,-36.5752 75.99535,-40.8605 76.33975,-41.1962 0.18687,-0.1821 -0.66791,-4.6919 -1.8995,-10.0216 -2.13089,-9.2215 -2.39982,-9.7575 -5.55763,-11.0769 -4.07598,-1.70305 -5.15536,-1.75924 -3.58262,-0.1865 3.06349,3.0635 1.37318,5.4855 -7.98931,11.4479 -5.05411,3.2187 -14.03627,9.0021 -19.96035,12.8521 -5.92408,3.85 -12.02639,7.782 -13.56069,8.7378 -1.53431,0.9558 -7.28965,4.6792 -12.78965,8.2742 -5.5,3.5951 -11.25861,7.3131 -12.79691,8.2622 -1.5383,0.9492 -8.30093,5.3258 -15.02807,9.7258 -6.72714,4.4 -16.04353,10.4348 -20.70309,13.4106 -4.65956,2.9758 -11.39693,7.3 -14.97193,9.6094 -14.37453,9.2855 -18.10221,11.48 -19.50037,11.48 -1.31018,0 -1.73999,1.0505 -2.96624,7.25 -0.36369,1.8387 1.91642,2.4492 2.94306,0.7881 z M 742,1101.0651 c 0,-3.1546 -1.84642,-7.0651 -3.33596,-7.0651 -0.762,0 -6.17283,-3.15 -12.02405,-7 -5.85123,-3.85 -10.98638,-7 -11.41145,-7 -0.42507,0 -2.33788,-1.2809 -4.2507,-2.8465 -1.91281,-1.5656 -4.60284,-3.4381 -5.97784,-4.1611 -1.375,-0.723 -7,-4.2321 -12.5,-7.798 -5.5,-3.5659 -14.5,-9.3995 -20,-12.9635 -5.5,-3.5641 -14.275,-9.255 -19.5,-12.6465 -5.225,-3.3915 -13.55,-8.7699 -18.5,-11.9519 -17.13736,-11.0166 -34.0016,-21.9238 -34.36562,-22.2264 -0.20109,-0.1672 0.113,-1.677 0.69798,-3.3551 1.21928,-3.49758 1.19884,-3.5087 -3.12588,-1.7017 -2.97486,1.243 -3.37073,1.9717 -5.02456,9.25 -0.9874,4.3454 -2.0089,8.6372 -2.26999,9.5373 -0.48565,1.6743 3.30304,4.3478 14.08807,9.9414 5.07678,2.633 11.18071,5.9275 22,11.8741 3.3,1.8137 10.725,5.8037 16.5,8.8666 5.775,3.0629 17.925,9.5892 27,14.5029 16.64222,9.011 23.11675,12.5032 35,18.878 7.07482,3.7952 15.07436,8.1952 27.5,15.1257 9.36725,5.2246 9.5,5.2629 9.5,2.7398 z m -4,-10.5719 c 0,-0.2788 -5.2875,-4.0118 -11.75,-8.2956 -10.82529,-7.1758 -19.82345,-13.28 -46.75,-31.7144 -5.5,-3.7654 -14.95,-10.215 -21,-14.3326 -6.05,-4.1175 -15.5,-10.5767 -21,-14.3537 -25.13102,-17.2584 -32.78693,-21.95009 -33.6352,-20.6124 -1.6258,2.5639 -0.77514,3.5566 7.3852,8.6185 4.5375,2.8147 10.275,6.5053 12.75,8.2013 5.78464,3.9639 20.22206,13.2875 54.32402,35.0818 18.02088,11.5171 47.34955,30.5461 53.17598,34.5018 4.77916,3.2446 6.5,4.0137 6.5,2.9053 z m -359.15412,-6.1347 c 4.75977,-3.1028 11.90131,-7.8278 15.87009,-10.5 3.96878,-2.6722 7.43902,-4.8585 7.71163,-4.8585 0.27261,0 5.35043,-3.2111 11.28403,-7.1358 5.9336,-3.9247 13.33739,-8.7622 16.45287,-10.75 21.79351,-13.9053 55.24527,-35.5518 60.3355,-39.0428 2.2,-1.5089 5.9125,-3.8 8.25,-5.0915 4.69575,-2.5945 4.81911,-2.8193 2.94925,-5.3765 -1.39557,-1.90857 -1.18778,-2.0324 -32.09746,19.1274 -5.00598,3.4269 -12.92679,8.7453 -17.60179,11.8186 -4.675,3.0733 -9.625,6.4451 -11,7.4929 -1.375,1.0478 -7.45,5.2713 -13.5,9.3856 -6.05,4.1143 -15.275,10.4202 -20.5,14.0131 -5.225,3.593 -15.9125,10.8105 -23.75,16.0391 -7.8375,5.2286 -14.25,9.7345 -14.25,10.0132 0,1.0885 1.49654,0.308 9.84588,-5.1348 z M 554.39532,1008.25 c 0.3456,-20.2125 0.74171,-43.1625 0.88025,-51 L 555.52747,943 H 552.5 549.47253 l 0.2519,14.25 c 0.13854,7.8375 0.53465,30.7875 0.88025,51 0.49012,28.6652 0.90708,36.75 1.89532,36.75 0.98824,0 1.4052,-8.0848 1.89532,-36.75 z m 3.47734,-1.25 c 2.27454,-57.70376 2.42495,-65 1.33993,-65 -0.57937,0 -1.29691,2.8125 -1.59454,6.25 -0.62795,7.25274 -1.72515,87.2014 -1.18892,86.6319 0.19775,-0.2101 0.84734,-12.7569 1.44353,-27.8819 z m -9.43132,-12.75 c -0.57423,-43.94584 -1.04774,-53.0436 -2.67602,-51.41532 -0.73628,0.73628 -0.70412,9.55148 0.1071,29.35876 0.63762,15.56861 1.42508,35.84406 1.7499,45.05656 0.32482,9.2125 0.75885,16.75 0.9645,16.75 0.20565,0 0.14018,-17.8875 -0.14548,-39.75 z m -38.94583,-0.27655 -0.70305,-4.16132 -1.95011,3.20672 c -1.07257,1.76369 -1.81337,3.31459 -1.64624,3.44645 1.19015,0.93893 4.35278,2.31915 4.64484,2.02708 0.19669,-0.19669 0.0412,-2.2302 -0.34544,-4.51893 z m 90.03278,2.98078 C 600.16714,995.92055 597.94512,991 596.83948,991 596.37777,991 596,992.0882 596,993.41821 c 0,1.33002 -0.26055,3.09719 -0.57899,3.92704 -0.43576,1.13556 -0.0608,1.37332 1.51558,0.96108 1.15202,-0.30126 2.31828,-0.9097 2.5917,-1.3521 z M 546.86712,930.25 l -0.13287,-9.75 -0.88518,8.48176 C 545.02182,936.90848 545.19565,940 546.46862,940 c 0.29226,0 0.47159,-4.3875 0.3985,-9.75 z M 556,921 v -19 h -3.5 -3.5 v 19 19 h 3.5 3.5 z m 3.41131,8.75 c -0.37415,-5.6375 -0.84475,-10.4375 -1.04579,-10.66667 C 558.16448,918.85417 558,923.46667 558,929.33333 558,936.0891 558.38343,940 559.04578,940 c 0.70394,0 0.82342,-3.35052 0.36553,-10.25 z m -16.3905,7.5 c 0.0114,-0.9625 0.66181,-9.4 1.44525,-18.75 1.99335,-23.78984 5.47294,-41.5 8.15368,-41.5 2.9198,0 9.38026,38.03173 9.38026,55.22014 0,4.7664 0.37217,6.77986 1.25318,6.77986 3.73832,0 23.80765,-7.01151 34.24682,-11.96462 9.55304,-4.53266 11.18001,-6.17375 13.07141,-13.18482 C 611.6294,909.92875 615,884.46439 615,880.39319 615,880.17694 612.53537,880 609.52305,880 c -8.02186,0 -8.78644,-1.54663 -8.35785,-16.90667 0.21979,-7.8772 0.76514,-12.42826 1.58758,-13.24889 0.68904,-0.6875 4.17654,-1.43618 7.75,-1.66372 L 617,847.76701 V 841.3835 835 H 593.5 570 v 6 6 h -10.92653 -10.92652 l -0.32348,-8.25 C 547.64556,834.2125 547.725,825.55 548,819.5 l 0.5,-11 h 31 31 l 0.28621,9.75 0.28621,9.75 H 580.53621 C 550.66667,828 550,828.04366 550,830 c 0,1.96078 0.66667,2 34,2 h 34 V 531.16124 c 0,-165.46132 -0.29479,-310.30451 -0.65509,-321.87376 l -0.65509,-21.03499 -6.09491,-0.61955 c -4.31963,-0.4391 -6.57069,-1.19439 -7.72835,-2.59309 -1.8884,-2.28157 -4.43209,-20.4622 -3.50881,-25.07862 L 599.95,157 H 581.475 563 v -9.5 -9.5 h -8.5 -8.5 l -0.11502,19.25 c -0.0633,10.5875 -0.0223,22.0625 0.0911,25.5 l 0.20609,6.25 H 534.5911 523.00004 v -5.5 -5.5 l -7.75,0.0789 c -4.2625,0.0434 -7.15842,0.31561 -6.43538,0.60487 2.5932,1.03743 2.98291,5.02825 1.77297,18.15588 -0.91929,9.97404 -1.63969,13.64208 -2.9342,14.94001 -1.27026,1.27361 -4.10944,1.86947 -10.93458,2.29484 -6.49934,0.40506 -2.78928,0.6263 12.57688,0.75 L 531.09138,215 530.79569,221.75 530.5,228.5 508.75,228.7695 487,229.039 V 527.5195 826 h 2.96107 2.96106 l 0.28894,-8.75 0.28893,-8.75 15.39164,-0.27681 c 19.39353,-0.34878 19.30981,-0.39847 18.89575,11.21564 L 527.5,827.5 l -20.34892,0.27102 c -17.96032,0.23921 -20.27862,0.45423 -19.75,1.83179 0.3294,0.85842 0.59892,5.34896 0.59892,9.97898 V 848 h 5.80887 c 9.28995,0 9.63321,0.54036 10.01766,15.76931 0.39157,15.51123 0.0158,16.23069 -8.47741,16.23069 -5.47348,0 -5.50463,0.0172 -4.96606,2.75 0.29809,1.5125 1.26304,8.6 2.14433,15.75 2.69808,21.88954 2.40668,21.27439 13.00923,27.46285 5.23305,3.05442 20.65151,9.31893 28.46338,11.56467 6.52948,1.87707 8.99609,1.80119 9.02081,-0.27752 z M 493,793.5 V 783 h 16.89301 c 14.48173,0 16.97965,0.22578 17.5,1.58179 0.33385,0.86998 0.60699,5.59498 0.60699,10.5 V 804 H 510.5 493 Z m 16,6 c 0,-2.41026 -0.23333,-2.5 -6.5,-2.5 -6.26667,0 -6.5,0.0897 -6.5,2.5 0,2.41026 0.23333,2.5 6.5,2.5 6.26667,0 6.5,-0.0897 6.5,-2.5 z m 17,0 c 0,-2.44444 -0.16667,-2.5 -7.5,-2.5 -7.33333,0 -7.5,0.0556 -7.5,2.5 0,2.44444 0.16667,2.5 7.5,2.5 7.33333,0 7.5,-0.0556 7.5,-2.5 z M 509,790 v -5 h -6.5 -6.5 v 5 5 h 6.5 6.5 z m 17,0 v -5 h -7.5 -7.5 v 5 5 h 7.5 7.5 z m 21.99968,2.75 -3.3e-4,-11.25 31.25033,0.20085 31.25032,0.20086 0.28275,11.04914 L 611.0655,804 H 579.53275 548 Z M 567,799.5 c 0,-2.47059 -0.1,-2.5 -8.5,-2.5 -8.4,0 -8.5,0.0294 -8.5,2.5 0,2.47059 0.1,2.5 8.5,2.5 8.4,0 8.5,-0.0294 8.5,-2.5 z m 20,0 c 0,-2.48148 -0.0667,-2.5 -9,-2.5 -8.93333,0 -9,0.0185 -9,2.5 0,2.48148 0.0667,2.5 9,2.5 8.93333,0 9,-0.0185 9,-2.5 z m 22,0 V 797 h -10 -10 v 2.5 2.5 h 10 10 z m -42,-10 V 784 h -8.5 -8.5 v 5.5 5.5 h 8.5 8.5 z m 20,0 V 784 h -9 -9 v 5.5 5.5 h 9 9 z m 22,0 V 784 h -10 -10 v 5.5 5.5 h 10 10 z m -116,-29 V 749 h 16.5 c 9.075,0 16.8375,-0.002 17.25,-0.004 0.4125,-0.002 0.87678,5.17294 1.03174,11.5 L 528.06347,772 H 510.53174 493 Z m 16,6.5 v -3 h -6.5 -6.5 v 3 3 h 6.5 6.5 z m 16.81642,-0.25 0.31642,-2.75 H 518.56642 511 v 3.04381 3.04381 l 7.25,-0.29381 c 7.08244,-0.28702 7.25731,-0.35737 7.56642,-3.04381 z M 509,756.5 V 751 h -6.5 -6.5 v 5.5 5.5 h 6.5 6.5 z m 16.80226,-0.25 0.30226,-5.25 H 518.55226 511 v 5.54381 5.54381 l 7.25,-0.29381 L 525.5,761.5 Z M 548,761 v -11 h 31.5 31.5 v 11 11 H 579.5 548 Z m 19,6.5 c 0,-2.47059 -0.1,-2.5 -8.5,-2.5 -8.4,0 -8.5,0.0294 -8.5,2.5 0,2.47059 0.1,2.5 8.5,2.5 8.4,0 8.5,-0.0294 8.5,-2.5 z m 20,0 c 0,-2.48148 -0.0667,-2.5 -9,-2.5 -8.93333,0 -9,0.0185 -9,2.5 0,2.48148 0.0667,2.5 9,2.5 8.93333,0 9,-0.0185 9,-2.5 z m 22,0 V 765 h -10 -10 v 2.5 2.5 h 10 10 z M 567,757 v -5 h -8.5 -8.5 v 5 5 h 8.5 8.5 z m 20,0 v -5 h -9 -9 v 5 5 h 9 9 z m 22,0 v -5 h -10 -10 v 5 5 h 10 10 z M 493.44094,738.70668 c -0.28322,-0.73804 -0.38579,-6.03647 -0.22794,-11.77428 L 493.5,716.5 l 17.28194,-0.27375 17.28194,-0.27375 -0.28194,11.77375 L 527.5,739.5 l -16.77207,0.27428 c -13.30079,0.21751 -16.87864,-0.003 -17.28699,-1.0676 z M 509,734.5 V 731 h -6.5 -6.5 v 3.5 3.5 h 6.5 6.5 z m 17,0 V 731 h -7.5 -7.5 v 3.5 3.5 h 7.5 7.5 z M 509,723 v -5 h -6.5 -6.5 v 5 5 h 6.5 6.5 z m 17,0 v -5 h -7.5 -7.5 v 5 5 h 7.5 7.5 z m 22,4.98575 v -12.01424 l 31.25,0.26424 31.25,0.26425 0.28174,11.75 0.28173,11.75 H 579.53174 548 Z M 567,734.5 V 731 h -8.5 -8.5 v 3.5 3.5 h 8.5 8.5 z m 20,0 V 731 h -9 -9 v 3.5 3.5 h 9 9 z m 22,0 V 731 h -10 -10 v 3.5 3.5 h 10 10 z m -42,-11 V 719 h -8.5 -8.5 v 4.5 4.5 h 8.5 8.5 z m 20,0 V 719 h -9 -9 v 4.5 4.5 h 9 9 z m 22,0 V 719 h -10 -10 v 4.5 4.5 h 10 10 z m -61,-28.01425 v -12.51424 l 31.25,0.26424 31.25,0.26425 0.28078,12.25 0.28078,12.25 H 579.53078 548 Z M 567,701.5 V 698 h -8.5 -8.5 v 3.5 3.5 h 8.5 8.5 z m 20,0 V 698 h -9 -9 v 3.5 3.5 h 9 9 z m 22,0 V 698 h -10 -10 v 3.5 3.5 h 10 10 z M 567,691 v -5 h -8.5 -8.5 v 5 5 h 8.5 8.5 z m 20,0 v -5 h -9 -9 v 5 5 h 9 9 z m 22,0 v -5 h -10 -10 v 5 5 h 10 10 z M 493.68998,706.35665 C 493.31049,705.97716 493,700.56667 493,694.33333 V 683 h 17.53174 17.53173 l -0.28173,11.75 -0.28174,11.75 -16.56002,0.27332 c -9.108,0.15032 -16.8705,-0.0372 -17.25,-0.41667 z M 509,701 v -3 h -6.5 -6.5 v 3 3 h 6.5 6.5 z m 17,0 v -3 h -7.5 -7.5 v 3 3 h 7.5 7.5 z M 509,689.5 V 684 h -6.5 -6.5 v 5.5 5.5 h 6.5 6.5 z m 16.80226,0.25 L 525.5,684.5 h -7 -7 l -0.30226,5.25 -0.30226,5.25 H 518.5 526.10452 Z M 548,663.60699 V 652 h 31.5 31.5 v 11 11 h -29.91821 c -16.45502,0 -30.63002,0.27314 -31.5,0.60699 C 548.19539,675.139 548,673.7802 548,663.60699 Z M 567,669 v -3 h -8.5 -8.5 v 3 3 h 8.5 8.5 z m 20,-0.0389 v -3.03894 l -8.75,0.28894 c -8.72084,0.28797 -8.75105,0.29809 -9.06642,3.03893 l -0.31642,2.75 H 577.93358 587 Z M 609,669 v -3 h -10 -10 v 3 3 h 10 10 z m -42,-10 v -5 h -8.5 -8.5 v 5 5 h 8.5 8.5 z m 20,-0.0389 v -5.03894 l -8.75,0.28894 -8.75,0.28893 -0.30479,4.75 -0.30479,4.75 H 577.94521 587 Z M 609,659 v -5 h -10 -10 v 5 5 h 10 10 z m -115.78275,3.75 0.28275,-11.25 15.86623,-0.27598 c 10.85079,-0.18875 16.30365,0.087 17.25,0.87244 1.01569,0.84295 1.38377,3.90885 1.38377,11.52598 L 528,674 H 510.46725 492.9345 Z M 509,669 v -3 h -6.5 -6.5 v 3 3 h 6.5 6.5 z m 17,-0.0438 v -3.04381 l -7.25,0.29381 c -7.08244,0.28702 -7.25731,0.35737 -7.56642,3.04381 l -0.31642,2.75 H 518.43358 526 Z M 509,658.5 V 653 h -6.5 -6.5 v 5.5 5.5 h 6.5 6.5 z m 17,0 V 653 h -7.5 -7.5 v 5.5 5.5 h 7.5 7.5 z m -33,-28 V 619 h 16.89301 c 14.48173,0 16.97965,0.22578 17.5,1.58179 0.33385,0.86998 0.60699,6.04498 0.60699,11.5 V 642 H 510.5 493 Z m 16,6.5 v -3 h -6.5 -6.5 v 3 3 h 6.5 6.5 z m 17,0 v -3 h -7.5 -7.5 v 3 3 h 7.5 7.5 z M 509,626.5 V 621 h -6.5 -6.5 v 5.5 5.5 h 6.5 6.5 z m 17,0 V 621 h -7.5 -7.5 v 5.5 5.5 h 7.5 7.5 z m 22,4 V 619 H 579.5 611 V 630.5 642 H 579.5 548 Z m 19,6.5 v -3 h -8.5 -8.5 v 3 3 h 8.5 8.5 z m 20,0 v -3 h -9 -9 v 3 3 h 9 9 z m 22,0 v -3 h -10 -10 v 3 3 h 10 10 z M 567,626.5 V 621 h -8.5 -8.5 v 5.5 5.5 h 8.5 8.5 z m 20,0 V 621 h -9 -9 v 5.5 5.5 h 9 9 z m 22,0 V 621 h -10 -10 v 5.5 5.5 h 10 10 z m -116,-28 V 587 H 510.5 528 V 598.5 610 H 510.5 493 Z m 16,6.5 v -3 h -6.5 -6.5 v 3 3 h 6.5 6.5 z m 17,0 v -3 h -7.5 -7.5 v 3 3 h 7.5 7.5 z m -17,-11 v -5 h -6.5 -6.5 v 5 5 h 6.5 6.5 z m 17,0 v -5 h -7.5 -7.5 v 5 5 h 7.5 7.5 z m 22,4.5 V 587 H 579.5 611 V 598.5 610 H 579.5 548 Z m 19,6.5 v -3 h -8.5 -8.5 v 3 3 h 8.5 8.5 z m 20,0 v -3 h -9 -9 v 3 3 h 9 9 z m 22,0 v -3 h -10 -10 v 3 3 h 10 10 z m -42,-11 v -5 h -8.5 -8.5 v 5 5 h 8.5 8.5 z m 20,0 v -5 h -9 -9 v 5 5 h 9 9 z m 22,0 v -5 h -10 -10 v 5 5 h 10 10 z M 493.21826,566.25 493.5,554.5 h 17 17 l 0.28174,11.75 0.28173,11.75 H 510.5 492.93653 Z M 509,572 v -3 h -6.5 -6.5 v 3 3 h 6.5 6.5 z m 17,0 v -3 h -7.5 -7.5 v 3 3 h 7.5 7.5 z m -17,-10 v -5 h -6.5 -6.5 v 5 5 h 6.5 6.5 z m 17.00233,-0.25 0.002,-5.25 -7.50233,0.329 -7.50233,0.32901 V 562.079 567 h 7.5 7.5 l 0.002,-5.25 z m 22.21492,5 L 548.5,555.5 h 31 31 l 0.28275,11.25 0.28275,11.25 H 579.5 547.9345 Z M 567,572 v -3 h -8.5 -8.5 v 3 3 h 8.5 8.5 z m 20,-0.0389 v -3.03894 l -8.75,0.28894 c -8.72084,0.28797 -8.75105,0.29809 -9.06642,3.03893 l -0.31642,2.75 H 577.93358 587 Z M 609,572 v -3 h -10 -10 v 3 3 h 10 10 z m -42,-10 v -5 h -8.5 -8.5 v 5 5 h 8.5 8.5 z m 20,-0.0389 v -5.03894 l -8.75,0.28894 -8.75,0.28893 -0.30479,4.75 -0.30479,4.75 H 577.94521 587 Z M 609,562 v -5 h -10 -10 v 5 5 h 10 10 z M 493.43162,543.6824 c -0.27809,-0.72469 -0.37647,-6.01219 -0.21862,-11.75 L 493.5,521.5 h 17 17 l 0.28174,11.75 0.28173,11.75 h -17.06312 c -13.19493,0 -17.17774,-0.2987 -17.56873,-1.3176 z M 509,539 v -3 h -6.5 -6.5 v 3 3 h 6.5 6.5 z m 17,0 v -3 h -7.5 -7.5 v 3 3 h 7.5 7.5 z M 509,528.5 V 523 h -6.5 -6.5 v 5.5 5.5 h 6.5 6.5 z m 17,0 V 523 h -7.5 -7.5 v 5.5 5.5 h 7.5 7.5 z m 22,4.98575 v -11.51424 l 31.25,0.26424 31.25,0.26425 0.28275,11.25 0.28275,11.25 H 579.53275 548 Z M 566.81336,540.25 567.12672,537 H 558.56336 550 v 2.83333 c 0,1.55834 0.31727,3.1506 0.70504,3.53838 0.38777,0.38777 4.10027,0.57527 8.25,0.41666 L 566.5,543.5 Z m 20,0 0.31336,-3.25 H 578.06336 569 v 2.83333 c 0,1.55834 0.31672,3.15005 0.70382,3.53715 0.38709,0.3871 4.32459,0.5746 8.75,0.41667 L 586.5,543.5 Z m 22.00276,-0.037 0.31612,-3.28701 -9.81612,0.28701 c -9.49054,0.27749 -9.82731,0.36618 -10.15361,2.67392 -0.49645,3.51115 1.39934,4.19109 10.83749,3.88698 l 8.5,-0.27389 z M 567,529.5 V 524 h -8.5 -8.5 v 5.5 5.5 h 8.5 8.5 z m 20,0 V 524 h -9 -9 v 5.5 5.5 h 9 9 z m 22,0 V 524 h -10 -10 v 5.5 5.5 h 10 10 z m -61,-28 V 490 H 579.5 611 V 501.5 513 H 579.5 548 Z m 19,6.5 v -3 h -8.5 -8.5 v 3 3 h 8.5 8.5 z m 20,0 v -3 h -9 -9 v 3 3 h 9 9 z m 22,0 v -3 h -10 -10 v 3 3 h 10 10 z M 567,497.5 V 492 h -8.5 -8.5 v 5.5 5.5 h 8.5 8.5 z m 20,0 V 492 h -9 -9 v 5.5 5.5 h 9 9 z m 22,0 V 492 h -10 -10 v 5.5 5.5 h 10 10 z M 493,501 v -11 h 16.89301 c 14.48173,0 16.97965,0.22578 17.5,1.58179 0.33385,0.86998 0.60699,5.81998 0.60699,11 V 512 H 510.5 493 Z m 16,6 v -3 h -6.5 -6.5 v 3 3 h 6.5 6.5 z m 17,0 v -3 h -7.5 -7.5 v 3 3 h 7.5 7.5 z m -17,-10 v -5 h -6.5 -6.5 v 5 5 h 6.5 6.5 z m 17,0 v -5 h -7.5 -7.5 v 5 5 h 7.5 7.5 z m 22,-27.39301 V 458 h 31.5 31.5 v 11 11 h -29.91821 c -16.45502,0 -30.63002,0.27314 -31.5,0.60699 C 548.19539,481.139 548,479.7802 548,469.60699 Z M 567,475 v -3 h -8.5 -8.5 v 3 3 h 8.5 8.5 z m 20,0 v -3 h -9 -9 v 3 3 h 9 9 z m 22,0 v -3 h -10 -10 v 3 3 h 10 10 z M 566.80479,464.75 567.10958,460 H 558.55479 550 v 5.04044 5.04044 l 8.25,-0.29044 L 566.5,469.5 Z M 587,465 v -5 h -9 -9 v 5 5 h 9 9 z m 22,0 v -5 h -10 -10 v 4.33333 c 0,2.38334 0.3,4.63334 0.66667,5 0.36666,0.36667 4.86666,0.66667 10,0.66667 H 609 Z m -116,3.5 V 457 h 16.89301 c 14.48173,0 16.97965,0.22578 17.5,1.58179 0.33385,0.86998 0.60699,6.04498 0.60699,11.5 V 480 H 510.5 493 Z m 16,6.5 v -3 h -6.5 -6.5 v 3 3 h 6.5 6.5 z m 17,0 v -3 h -7.5 -7.5 v 3 3 h 7.5 7.5 z M 509,464.5 V 459 h -6.5 -6.5 v 5.5 5.5 h 6.5 6.5 z m 16.80226,-0.25 0.30226,-5.25 H 518.55226 511 v 5.54381 5.54381 l 7.25,-0.29381 L 525.5,469.5 Z M 493.21593,437.27376 493.5,426.5 l 15,-0.66096 c 19.99087,-0.88088 19.66945,-1.08017 19.28565,11.95737 L 527.5,447.5 l -17.28407,0.27376 -17.28408,0.27376 z M 509,443.5 c 0,-2.41026 -0.23333,-2.5 -6.5,-2.5 -6.26667,0 -6.5,0.0897 -6.5,2.5 0,2.41026 0.23333,2.5 6.5,2.5 6.26667,0 6.5,-0.0897 6.5,-2.5 z m 17,0 c 0,-2.44444 -0.16667,-2.5 -7.5,-2.5 -7.33333,0 -7.5,0.0556 -7.5,2.5 0,2.44444 0.16667,2.5 7.5,2.5 7.33333,0 7.5,-0.0556 7.5,-2.5 z M 509,433 v -5 h -6.5 -6.5 v 5 5 h 6.5 6.5 z m 17,0 v -5 h -7.5 -7.5 v 5 5 h 7.5 7.5 z m 22,3.98575 v -11.01424 l 31.25,0.26424 31.25,0.26425 0.28383,10.75 0.28383,10.75 H 579.53383 548 Z m 18.81955,6.26425 c 0.31006,-2.18315 0.065,-2.25 -8.25,-2.25 -8.51057,0 -8.56955,0.0175 -8.56955,2.54044 0,2.53877 0.005,2.54025 8.25,2.25 7.69161,-0.27078 8.27163,-0.44273 8.56955,-2.54044 z M 587,443.5 c 0,-2.48148 -0.0667,-2.5 -9,-2.5 -8.93333,0 -9,0.0185 -9,2.5 0,2.48148 0.0667,2.5 9,2.5 8.93333,0 9,-0.0185 9,-2.5 z m 22,0 V 441 h -10 c -9.0303,0 -10,0.17778 -10,1.83333 0,1.00834 0.3,2.13334 0.66667,2.5 0.36666,0.36667 4.86666,0.66667 10,0.66667 9.28889,0 9.33333,-0.0119 9.33333,-2.5 z m -42,-10 V 429 h -8.5 -8.5 v 4.5 4.5 h 8.5 8.5 z m 20,0 V 429 h -9 -9 v 4.5 4.5 h 9 9 z m 22,0 V 429 h -10 -10 v 4.5 4.5 h 10 10 z M 493.66667,415.33333 C 493.3,414.96667 493,409.79167 493,403.83333 V 393 l 5.25,-0.11042 c 14.79222,-0.31111 28.28957,0.36313 28.97956,1.44762 1.25673,1.97527 0.89647,19.13677 -0.42956,20.4628 -1.29286,1.29286 -31.88144,1.78523 -33.13333,0.53333 z M 509,411 v -3 h -6.5 -6.5 v 3 3 h 6.5 6.5 z m 16.81642,-0.25 0.31642,-2.75 h -7.56642 C 511.30636,408 511,408.0945 511,410.33333 c 0,3.44139 0.77275,3.77716 7.95762,3.45763 6.31089,-0.28066 6.55358,-0.38826 6.8588,-3.04096 z M 509,400 v -6 h -7.10699 c -6.0698,0 -7.0184,0.23084 -6.5,1.58179 0.33385,0.86998 0.60699,3.56998 0.60699,6 V 406 h 6.5 6.5 z m 17,0 v -6 l -7.75,-0.002 -7.75,-0.002 0.33882,6.00182 0.33882,6.00182 H 518.58882 526 v -6 z m 22,4.48575 v -11.51424 l 31.25,0.26424 31.25,0.26425 0.28275,11.25 0.28275,11.25 H 579.53275 548 Z M 567,411 v -3 h -8.5 -8.5 v 3 3 h 8.5 8.5 z m 20,0 v -3 h -9 c -8.7619,0 -9,0.0617 -9,2.33333 0,1.28334 0.3,2.63334 0.66667,3 0.36666,0.36667 4.41666,0.66667 9,0.66667 H 587 Z m 22,0 v -3 h -10 -10 v 3 3 h 10 10 z m -42,-10 v -5 h -8.5 -8.5 v 5 5 h 8.5 8.5 z m 20,0 v -5 h -9 -9 v 5 5 h 9 9 z m 22,0 v -5 h -10 -10 v 5 5 h 10 10 z M 493.4341,382.68886 c -0.27673,-0.72113 -0.3751,-6.45863 -0.21862,-12.75 L 493.5,358.5 h 17 17 l 0.27988,12.75 0.27987,12.75 h -17.06126 c -13.15085,0 -17.17658,-0.30051 -17.56439,-1.31114 z M 509,377 v -4 h -6.5 -6.5 v 4 4 h 6.5 6.5 z m 17,0 v -4 h -7.5 -7.5 v 4 4 h 7.5 7.5 z M 509,365.5 V 360 h -6.5 -6.5 v 5.5 5.5 h 6.5 6.5 z m 17,0 V 360 h -7.5 -7.5 v 5.5 5.5 h 7.5 7.5 z m 22,5.98575 v -12.51424 l 31.25,0.26424 31.25,0.26425 0.28078,12.25 0.28078,12.25 H 579.53078 548 Z M 567,377.5 V 374 h -8.5 -8.5 v 3.5 3.5 h 8.5 8.5 z m 20,0 V 374 h -9 -9 v 3.5 3.5 h 9 9 z m 22,-0.0362 v -3.53621 l -9.75,0.28621 -9.75,0.28621 -0.31336,3.25 -0.31336,3.25 H 598.93664 609 Z M 567,366.5 V 361 h -8.5 -8.5 v 5.5 5.5 h 8.5 8.5 z m 20,-0.0389 v -5.53894 l -8.75,0.28894 -8.75,0.28893 -0.30226,5.25 -0.30226,5.25 H 577.94774 587 Z M 609,366.5 V 361 h -10 -10 v 5.5 5.5 h 10 10 z M 493,339 v -12 h 17.5 17.5 v 12 12 H 510.5 493 Z m 16,6.5 V 342 h -6.5 -6.5 v 3.5 3.5 h 6.5 6.5 z m 17,0 V 342 h -7.5 -7.5 v 3.5 3.5 h 7.5 7.5 z m -17,-11 V 329 h -6.5 -6.5 v 5.5 5.5 h 6.5 6.5 z m 17,0 V 329 h -7.5 -7.5 v 5.5 5.5 h 7.5 7.5 z m 22,4.5 v -12 h 31.5 31.5 v 12 12 H 579.5 548 Z m 19,6.5 V 342 h -8.5 -8.5 v 3.5 3.5 h 8.5 8.5 z m 20,0 V 342 h -9 -9 v 3.5 3.5 h 9 9 z m 22,0 V 342 h -10 -10 v 3.5 3.5 h 10 10 z m -42,-11 V 329 l -8.75,-10e-4 -8.75,-0.001 0.34255,5.50137 0.34255,5.50136 H 558.59255 567 v -5.5 z m 20,0 V 329 h -9 -9 v 5.5 5.5 h 9 9 z m 22,0 V 329 h -10 -10 v 5.5 5.5 h 10 10 z M 510,318.0377 493.5,317.5 493.21922,305.25 492.93844,293 H 510.46922 528 v 13 c 0,7.15 -0.3375,12.90446 -0.75,12.7877 -0.4125,-0.11677 -8.175,-0.45427 -17.25,-0.75 z M 509,312.5 V 309 h -6.5 -6.5 v 3.5 3.5 h 6.5 6.5 z m 17,0 V 309 h -7.5 -7.5 v 3.5 3.5 h 7.5 7.5 z M 509,301 v -6 h -6.5 -6.5 v 6 6 h 6.5 6.5 z m 16.7999,-0.25 0.29991,-5.75 H 518.5499 511 v 6.04381 6.04381 l 7.25,-0.29381 L 525.5,306.5 Z M 548,306 v -13 h 31.5 31.5 v 13 13 H 579.5 548 Z m 18.81336,7.25 0.31336,-3.25 H 558.56336 550 v 3.5538 3.55381 l 8.25,-0.30381 8.25,-0.3038 z M 587,313.5 V 310 h -9 -9 v 3.5 3.5 h 9 9 z m 22,-0.12722 V 310 h -10 -10 v 2.83333 c 0,1.55834 0.32066,3.15399 0.71257,3.54591 0.39191,0.39191 4.89191,0.63466 10,0.53945 L 609,316.74556 Z M 567,301 v -6 h -8.5 -8.5 v 6 6 h 8.5 8.5 z m 20,0 v -6 h -9 -9 v 6 6 h 9 9 z m 22,0 v -6 h -10 -10 v 6 6 h 10 10 z M 493.21922,273.75 493.5,261.5 l 15.86623,-0.27598 c 10.85079,-0.18875 16.30365,0.087 17.25,0.87244 1.02999,0.85482 1.38377,4.05729 1.38377,12.52598 V 286 H 510.46922 492.93844 Z M 509,280 v -3 h -6.5 -6.5 v 3 3 h 6.5 6.5 z m 17,0 v -3 h -7.5 -7.5 v 3 3 h 7.5 7.5 z m -17,-11 v -5 h -6.5 -6.5 v 5 5 h 6.5 6.5 z m 17,0 v -5 h -7.5 -7.5 v 5 5 h 7.5 7.5 z m 22.21826,5.25 L 548.5,262.5 h 31 31 l 0.28174,11.75 0.28173,11.75 H 579.5 547.93653 Z M 567,280 v -3 h -8.5 -8.5 v 3 3 h 8.5 8.5 z m 20,-0.0389 v -3.03894 l -8.75,0.28894 c -8.72084,0.28797 -8.75105,0.29809 -9.06642,3.03893 l -0.31642,2.75 H 577.93358 587 Z m 22,0.003 v -3.03621 l -9.75,0.28621 -9.75,0.28621 -0.31642,2.75 -0.31642,2.75 H 598.93358 609 Z M 567,270 v -5 h -8.5 -8.5 v 5 5 h 8.5 8.5 z m 20,0 v -5 h -9 -9 v 5 5 h 9 9 z m 22,0 v -5 h -10 -10 v 5 5 h 10 10 z M 509.75,254.22582 493,253.95164 V 241.97582 230 h 16.88337 c 16.66335,0 16.89122,0.0293 17.48634,2.25 0.86989,3.24597 0.76989,21.57445 -0.11971,21.94098 -0.4125,0.16996 -8.2875,0.18564 -17.5,0.0348 z M 509,248.5 c 0,-2.41026 -0.23333,-2.5 -6.5,-2.5 -6.26667,0 -6.5,0.0897 -6.5,2.5 0,2.41026 0.23333,2.5 6.5,2.5 6.26667,0 6.5,-0.0897 6.5,-2.5 z m 17,0 c 0,-2.44444 -0.16667,-2.5 -7.5,-2.5 -7.33333,0 -7.5,0.0556 -7.5,2.5 0,2.44444 0.16667,2.5 7.5,2.5 7.33333,0 7.5,-0.0556 7.5,-2.5 z m -17,-10 V 233 h -6.5 -6.5 v 5.5 5.5 h 6.5 6.5 z m 17,0 V 233 h -7.5 -7.5 v 5.5 5.5 h 7.5 7.5 z m 21.81642,12.75 c -0.17403,-1.5125 -0.17198,-6.6875 0.005,-11.5 l 0.32097,-8.75 h 31.42903 31.42903 v 11.5 11.5 h -31.43358 -31.43358 l -0.31642,-2.75 z M 567,248.5 c 0,-2.47059 -0.1,-2.5 -8.5,-2.5 -8.4,0 -8.5,0.0294 -8.5,2.5 0,2.47059 0.1,2.5 8.5,2.5 8.4,0 8.5,-0.0294 8.5,-2.5 z m 20,0 c 0,-2.48148 -0.0667,-2.5 -9,-2.5 -8.93333,0 -9,0.0185 -9,2.5 0,2.48148 0.0667,2.5 9,2.5 8.93333,0 9,-0.0185 9,-2.5 z m 22,0 V 246 h -10 -10 v 2.5 2.5 h 10 10 z m -42,-10 V 233 h -8.5 -8.5 v 5.5 5.5 h 8.5 8.5 z m 20,0 V 233 h -9 -9 v 5.5 5.5 h 9 9 z m 22,-0.0362 v -5.53621 l -9.75,0.28621 -9.75,0.28621 -0.30226,5.25 -0.30226,5.25 H 598.94774 609 Z M 555.53939,894.25 c -0.37823,-2.6125 -1.1915,-6.775 -1.80727,-9.25 l -1.11958,-4.5 -1.18497,4.0503 c -0.65173,2.22767 -1.50678,6.39017 -1.9001,9.25 L 548.81232,899 h 3.70739 3.70738 z M 501.5,864.33075 c 0,-6.69309 -0.34697,-12.51506 -0.77105,-12.93772 -0.42407,-0.42265 -3.48193,-0.96454 -6.79525,-1.20421 l -6.0242,-0.43575 0.58938,9.37347 c 0.32417,5.1554 0.82533,11.3075 1.11371,13.67132 l 0.52431,4.29786 5.68155,-0.29786 L 501.5,876.5 Z M 615.45317,875.75 c 0.21473,-0.6875 0.67771,-6.7625 1.02886,-13.5 L 617.12048,850 H 612.4945 C 604.17601,850 604,850.30118 604,864.53518 V 877 h 5.53138 c 3.55023,0 5.67122,-0.44771 5.92179,-1.25 z m -47.65091,-35.5 0.30226,-5.25 H 559.55226 551 v 4.83333 c 0,2.65834 0.25676,5.0901 0.57058,5.40392 0.31382,0.31382 4.02632,0.50132 8.25,0.41666 L 567.5,845.5 Z M 509,824 c 0,-1.79487 -0.66667,-2 -6.5,-2 -5.83333,0 -6.5,0.20513 -6.5,2 0,1.79487 0.66667,2 6.5,2 5.83333,0 6.5,-0.20513 6.5,-2 z m 17,0 c 0,-1.82222 -0.66667,-2 -7.5,-2 -6.83333,0 -7.5,0.17778 -7.5,2 0,1.82222 0.66667,2 7.5,2 6.83333,0 7.5,-0.17778 7.5,-2 z m 41,-0.5 c 0,-2.47059 -0.1,-2.5 -8.5,-2.5 -8.4,0 -8.5,0.0294 -8.5,2.5 0,2.47059 0.1,2.5 8.5,2.5 8.4,0 8.5,-0.0294 8.5,-2.5 z m 20,0 c 0,-2.48148 -0.0667,-2.5 -9,-2.5 -8.93333,0 -9,0.0185 -9,2.5 0,2.48148 0.0667,2.5 9,2.5 8.93333,0 9,-0.0185 9,-2.5 z m 22,0 V 821 h -10 -10 v 2.5 2.5 h 10 10 z M 508.8075,815.25 509.115,811 H 502.5575 496 v 4.58014 4.58015 l 6.25,-0.33015 6.25,-0.33014 z m 17,0 0.3075,-4.25 H 518.5575 511 v 3.83333 c 0,2.10834 0.21723,4.05057 0.48274,4.31608 0.26551,0.2655 3.52801,0.453 7.25,0.41666 L 525.5,819.5 Z M 567,815 v -4 h -8.5 -8.5 v 4 4 h 8.5 8.5 z m 20,0 v -4 h -9 -9 v 4 4 h 9 9 z m 22,0 v -4 h -10 -10 v 4 4 h 10 10 z M 29.577461,703.5 c 1.233756,-3.85 3.894725,-12.4 5.913263,-19 2.018538,-6.6 4.983891,-15.75826 6.589673,-20.35169 C 45.642003,653.96014 45.691349,653.00188 42.5,656 c -1.729801,1.62506 -2.5,3.41158 -2.5,5.79888 0,2.82177 -0.899223,4.32152 -4.936627,8.23347 -5.29373,5.12924 -5.850461,6.49361 -9.167968,22.46765 -2.443286,11.7646 -2.530557,18.76983 -0.228271,18.32332 1.082075,-0.20985 2.454352,-2.77988 3.910327,-7.32332 z M 1082,706.55076 c 0,-5.18704 -3.5301,-24.6809 -5.2604,-29.04857 -0.6531,-1.6488 -3.3367,-5.08024 -5.9636,-7.62544 -3.8945,-3.77348 -4.776,-5.26802 -4.776,-8.0972 0,-3.12928 -3.1931,-7.91982 -4.4446,-6.66826 -0.2378,0.2378 1.0707,4.92255 2.9077,10.41054 5.3824,16.07903 9.6673,29.61074 11.0761,34.97817 2.0728,7.89703 3.2965,10.5 4.936,10.5 1.1379,0 1.5248,-1.12893 1.5248,-4.44924 z M 38.555828,707.05032 C 41.825123,705.97799 46.4125,704.61065 48.75,704.01177 L 53,702.92291 v -4.90244 c 0,-2.74726 0.530055,-5.23003 1.205729,-5.64762 1.245679,-0.76987 12.063067,-4.72362 24.294271,-8.87955 3.85,-1.30815 12.175,-4.22675 18.5,-6.48577 20.01781,-7.14952 31.33103,-11.11223 37,-12.96006 3.025,-0.98602 8.59108,-2.97507 12.36906,-4.42012 8.6636,-3.31375 10.41728,-3.32683 11.23123,-0.0838 0.35111,1.39896 1.14719,2.33874 1.76905,2.08842 0.62186,-0.25033 10.35566,-3.49428 21.63066,-7.20877 11.275,-3.7145 20.66214,-6.87892 20.86031,-7.03206 0.19817,-0.15313 -0.70183,-3.24449 -2,-6.86969 -2.75272,-7.68708 -3.0522,-7.26899 7.61089,-10.62524 3.86584,-1.21679 7.4788,-2.53298 8.0288,-2.92486 0.55,-0.39188 5.05,-2.10299 10,-3.80246 4.95,-1.69948 14.625,-5.16742 21.5,-7.70655 6.875,-2.53913 15.425,-5.65093 19,-6.91511 6.29325,-2.22541 14.58143,-5.26983 35.5,-13.03991 15.49747,-5.75644 31.08296,-11.43689 41.5,-15.12552 l 9.5,-3.36391 60.75,-0.009 L 474,577 v 2.5 c 0,2.36364 0.3,2.5 5.5,2.5 h 5.5 v -77.45474 -77.45473 l -11.25,7.11139 c -6.1875,3.91127 -13.12356,8.39091 -15.41348,9.95474 -2.28991,1.56384 -4.36617,2.84334 -4.6139,2.84334 -0.5202,0 -24.74591,14.93014 -29.22262,18.0097 -3.18394,2.19025 -17.63698,10.91822 -21,12.68157 -1.1,0.57677 -4.025,2.02696 -6.5,3.22265 -7.32698,3.53971 -15.29027,8.59172 -18.5,11.73663 -5.29382,5.1869 -25.2042,16.6772 -56.5,32.6062 -42.40685,21.58431 -67.87371,34.6177 -86,44.01291 -15.1218,7.83793 -44.10007,22.64904 -84.5,43.18888 -11,5.59254 -29.225,14.91701 -40.5,20.72105 -42.768658,22.01604 -56.970113,28.95692 -57.975838,28.33534 -0.571112,-0.35296 -1.721741,-1.96322 -2.556954,-3.57834 C 49.631996,656.32146 48.615679,655 48.208726,655 c -0.406952,0 -2.009686,4.1625 -3.561631,9.25 -1.551945,5.0875 -4.083061,13.075 -5.624703,17.75 -8.312308,25.20691 -8.791565,27 -7.216564,27 0.443206,0 3.480706,-0.87736 6.75,-1.94968 z M 1070.8523,693.75 c -2.7105,-8.3875 -6.004,-18.85 -7.319,-23.25 -1.3149,-4.4 -3.2472,-10.01012 -4.294,-12.46693 l -1.9032,-4.46694 -1.8605,4.21694 c -1.0233,2.31931 -2.252,4.21693 -2.7305,4.21693 -0.8943,0 -60.45031,-29.64074 -62.2451,-30.97913 -0.92724,-0.69145 -22.20666,-11.5918 -86.5,-44.30948 -24.85156,-12.6465 -43.60979,-22.22506 -84.5,-43.14843 -11,-5.62866 -31.025,-15.84884 -44.5,-22.71151 -26.04392,-13.26389 -40.79838,-21.90936 -46.38886,-27.18186 -1.8862,-1.77892 -4.70784,-3.88567 -6.2703,-4.68167 -1.56246,-0.796 -4.19084,-2.40397 -5.84084,-3.57327 -1.65,-1.1693 -4.9125,-3.09095 -7.25,-4.27033 -2.3375,-1.17937 -6.1625,-3.11873 -8.5,-4.30968 -2.3375,-1.19094 -9.1253,-5.24094 -15.084,-9 C 679.70729,464.07559 674.70431,461 674.54825,461 674.3922,461 668.2425,457.1782 660.88226,452.5071 653.52202,447.83601 644.8,442.41599 641.5,440.4626 c -3.3,-1.95338 -9.4875,-5.7849 -13.75,-8.51449 L 620,426.98523 V 504.49261 582 h 5.43045 c 4.87023,0 5.46341,-0.23212 5.75,-2.25 l 0.31955,-2.25 60.94753,-0.25782 60.94752,-0.25783 10.05248,3.63542 c 8.9713,3.24442 17.65263,6.41807 41.05247,15.00762 3.85,1.41325 10.6,3.86302 15,5.44394 4.4,1.58093 12.95,4.71017 19,6.95389 6.05,2.24371 15.275,5.60729 20.5,7.47462 5.225,1.86733 14,5.04886 19.5,7.07006 5.5,2.02121 14.20487,5.16221 19.34416,6.98 5.13928,1.81779 9.62676,3.58768 9.97216,3.93309 0.3454,0.3454 -0.18339,2.74053 -1.1751,5.32251 -3.56175,9.27327 -5.14893,7.90802 18.05226,15.52796 11.44359,3.7584 21.31532,7.0405 21.93718,7.29355 0.62186,0.25306 1.41794,-0.6845 1.76905,-2.08346 0.81395,-3.24303 2.56763,-3.22995 11.23123,0.0838 3.77798,1.44505 9.34406,3.42508 12.36906,4.40007 3.025,0.97499 11.35,3.8726 18.5,6.43913 7.15,2.56653 16.6,5.80784 21,7.20291 4.4,1.39507 8.45,2.88686 9,3.31508 0.55,0.42822 4.6,1.91631 9,3.30685 13.5083,4.26906 22.9643,7.88417 23.7347,9.07397 0.4041,0.62405 0.7416,3.02908 0.75,5.3445 0.015,4.09489 0.1314,4.24246 4.2653,5.40368 2.3375,0.6566 6.725,2.00959 9.75,3.00665 3.025,0.99705 6.0131,1.82789 6.6402,1.84632 0.6816,0.02 -0.8421,-6.10094 -3.7879,-15.21651 z M 79,694.50125 c 6.875,-2.04419 17.225,-5.17888 23,-6.96596 5.775,-1.78709 16.125,-4.95283 23,-7.03498 6.875,-2.08216 16.325,-4.99457 21,-6.47203 l 8.5,-2.68629 0.2999,-5.67099 c 0.21968,-4.15397 -0.0496,-5.671 -1.0066,-5.671 -1.73109,0 -5.1365,1.07901 -18.2933,5.79629 -6.05,2.16919 -16.4,5.85992 -23,8.20162 -6.6,2.3417 -16.275,5.8014 -21.5,7.68821 -5.225,1.88682 -12.2,4.318 -15.5,5.40264 -3.3,1.08463 -9.0375,3.15447 -12.75,4.59964 -6.691584,2.60483 -6.75,2.66053 -6.75,6.43553 v 3.80797 l 5.25,-1.85697 c 2.8875,-1.02132 10.875,-3.52948 17.75,-5.57368 z m 972,3.66653 c 0,-3.42542 -0.345,-3.95199 -3.25,-4.96051 -3.7387,-1.29797 -20.6801,-7.28665 -35.25,-12.46068 -5.5,-1.95315 -14.5,-5.14601 -20,-7.09524 -5.5,-1.94923 -15.175,-5.39779 -21.5,-7.66347 -16.8626,-6.04034 -19.01668,-6.56357 -20.11072,-4.88493 -0.92825,1.42427 -0.21074,8.88707 0.96364,10.02287 0.65523,0.63371 6.53357,2.52423 29.14708,9.37393 6.875,2.08246 17.225,5.24676 23,7.03177 5.775,1.78502 15.9,4.87395 22.5,6.8643 6.6,1.99034 14.475,4.45776 17.5,5.48314 3.025,1.02538 5.8375,1.92209 6.25,1.99269 0.4125,0.0706 0.75,-1.59615 0.75,-3.70387 z M 182.66715,669.66369 C 183.14044,666.74717 182.94113,666 181.68986,666 c -2.31381,0 -2.97117,1.68695 -2.21923,5.69514 0.80265,4.27847 2.33009,3.30776 3.19652,-2.03145 z m 743.99278,-2.10751 C 926.33149,666.70028 925.32357,666 924.42009,666 c -1.35601,0 -1.52015,0.65309 -0.9406,3.74238 0.38615,2.05832 0.98202,4.19534 1.32417,4.74895 0.86753,1.4037 2.58867,-5.02656 1.85627,-6.93515 z m -757.21719,-0.46933 c 4.98149,-1.60223 14.45726,-4.54673 21.05726,-6.54332 6.6,-1.99659 16.725,-5.11383 22.5,-6.92718 5.775,-1.81336 16.125,-5.00822 23,-7.0997 6.875,-2.09148 17.225,-5.26803 23,-7.05899 12.54693,-3.89109 30.24599,-9.29418 46,-14.04266 6.325,-1.90644 16.45,-4.99977 22.5,-6.87406 6.05,-1.87429 12.19575,-3.66085 13.65721,-3.97014 1.46147,-0.30928 4.72397,-1.44824 7.25,-2.53103 4.47988,-1.9203 4.59279,-2.07874 4.59279,-6.44522 0,-2.46208 -0.3375,-4.67376 -0.75,-4.91483 -0.4125,-0.24108 -7.95,2.00306 -16.75,4.98697 -8.8,2.98391 -18.025,6.02043 -20.5,6.74781 -2.475,0.72738 -8.1,2.56405 -12.5,4.08148 -16.66887,5.7486 -27.97053,9.51201 -60,19.97978 -18.15,5.93172 -36.6,12.0345 -41,13.56174 -4.4,1.52724 -15.425,5.13516 -24.5,8.01759 -9.075,2.88244 -17.0625,5.67932 -17.75,6.2153 -1.59261,1.2416 -1.63746,5.72961 -0.0573,5.72961 0.65601,0 5.26851,-1.31092 10.25,-2.91315 z M 948,667.05767 c 0,-2.78478 -0.38821,-3.05944 -7.25,-5.12934 -3.9875,-1.20285 -10.4,-3.3001 -14.25,-4.66055 -3.85,-1.36046 -9.7,-3.26951 -13,-4.24234 -3.3,-0.97283 -8.7,-2.72867 -12,-3.90187 C 894.47389,646.62568 753.85125,600 753.34375,600 753.15469,600 753,602.44905 753,605.44233 v 5.44233 l 7.25,2.19712 c 3.9875,1.20841 11.975,3.645 17.75,5.41464 5.775,1.76965 16.125,4.92126 23,7.00358 6.875,2.08232 17.225,5.23724 23,7.01093 5.775,1.77369 16.8,5.13966 24.5,7.47995 16.42042,4.9907 28.80133,8.78999 44,13.50213 6.05,1.87573 16.4,5.06476 23,7.08676 6.6,2.02199 15.825,4.9332 20.5,6.46934 11.17854,3.67313 12,3.67371 12,0.009 z M 36.968197,664.12756 c -0.02672,-1.36732 -0.266559,-1.31719 -1.5,0.31357 -1.910979,2.52654 -1.890746,4.15444 0.0318,2.55887 0.825,-0.68469 1.485688,-1.97729 1.468197,-2.87244 z m 1033.945303,0.71075 c -0.7901,-1.47619 -1.4054,-1.86255 -1.6756,-1.05202 -0.4391,1.31725 1.7006,4.60858 2.4856,3.82352 0.2412,-0.24118 -0.1233,-1.48836 -0.81,-2.7715 z M 67.389348,652.88616 C 74.050206,649.52354 88.95,641.91492 100.5,635.97811 c 11.55,-5.93681 29.55,-15.11654 40,-20.3994 10.45,-5.28285 26.425,-13.44884 35.5,-18.14663 9.075,-4.69779 33.375,-17.13676 54,-27.64215 20.625,-10.5054 48.075,-24.57082 61,-31.25649 12.925,-6.68567 30.475,-15.68949 39,-20.00848 8.525,-4.31899 17.1875,-8.90961 19.25,-10.20138 3.65428,-2.28872 3.75,-2.5015 3.75,-8.33612 C 353,496.47855 352.56605,494 351.95169,494 c -1.27118,0 -4.3778,1.52308 -22.45169,11.00733 -20.31225,10.65883 -30.77475,16.08355 -51,26.44305 -9.9,5.07084 -18.9,9.7273 -20,10.3477 -1.1,0.62039 -11.675,6.14964 -23.5,12.28722 -11.825,6.13758 -25.55,13.29514 -30.5,15.9057 -4.95,2.61055 -15.3,8.01921 -23,12.01923 -24.66259,12.81181 -42.54404,22.18244 -66,34.58677 -6.6,3.49031 -15.15,7.91259 -19,9.82729 -3.85,1.9147 -13.975,7.13056 -22.5,11.59079 -8.525,4.46023 -17.646763,9.21875 -20.270585,10.57449 -4.39396,2.27038 -4.679869,2.64046 -3.621501,4.68771 1.279011,2.47404 3.9394,5.72272 4.686421,5.72272 0.266398,0 5.934154,-2.75123 12.595013,-6.11384 z M 1053.7679,656.25 c 1.0473,-1.5125 2.2075,-3.27692 2.5783,-3.92093 0.6524,-1.1333 -2.0098,-2.62393 -40.8462,-22.87006 -7.15,-3.72743 -19.075,-9.95058 -26.5,-13.82921 -7.425,-3.87864 -16.425,-8.55508 -20,-10.39209 -3.575,-1.83701 -11.9,-6.15646 -18.5,-9.59877 -15.25012,-7.9539 -38.17421,-19.88903 -55.5,-28.89537 -17.1556,-8.91787 -32.05267,-16.71695 -43.5,-22.7736 -4.95,-2.61898 -17.55,-9.14455 -28,-14.50125 C 796.80167,515.78308 780.3681,507.28829 766.78812,500.1534 760.34659,496.76903 754.58853,494 753.99243,494 c -0.6983,0 -0.97863,2.33268 -0.78812,6.55796 l 0.29569,6.55795 16,8.24763 c 40.11416,20.6779 67.27803,34.58963 95.5,48.90944 16.775,8.51162 39.05,19.86121 49.5,25.22131 10.45,5.36009 30.925,15.82962 45.5,23.26562 30.85577,15.74226 62.6717,31.99275 79,40.35045 6.325,3.23748 11.8069,5.88707 12.1819,5.88799 0.3751,9.1e-4 1.5388,-1.23585 2.586,-2.74835 z M 233.5,636.88681 c 26.74523,-8.74846 33.93535,-11.14424 52,-17.32664 4.4,-1.50585 10.7,-3.54017 14,-4.52071 3.3,-0.98054 8.7,-2.73447 12,-3.89763 3.3,-1.16316 13.875,-4.70841 23.5,-7.87833 l 17.5,-5.7635 0.28893,-8.75 c 0.15892,-4.8125 -0.10299,-8.75 -0.58201,-8.75 -0.97038,0 -15.15198,5.07284 -53.70692,19.21127 -6.05,2.21859 -13.925,5.06474 -17.5,6.32479 -3.575,1.26005 -11.45,4.15512 -17.5,6.4335 -6.05,2.27838 -14.6,5.43093 -19,7.00568 -4.4,1.57474 -13.625,4.97552 -20.5,7.55728 -6.875,2.58177 -14.88477,5.43062 -17.79948,6.3308 -2.91471,0.90017 -5.38971,1.93955 -5.5,2.30973 -0.27717,0.93034 3.61524,10.82158 4.26962,10.84981 0.29142,0.0126 13.12986,-4.09865 28.52986,-9.13605 z M 903.58304,640.75 c 0.95907,-2.8875 1.60539,-5.475 1.43626,-5.75 -0.16912,-0.275 -3.95515,-1.72907 -8.4134,-3.23126 -4.45824,-1.5022 -9.6809,-3.35088 -11.6059,-4.1082 -1.925,-0.75731 -5.075,-1.92669 -7,-2.59863 -4.15905,-1.45175 -20.19778,-7.35252 -35.5,-13.06073 -6.05,-2.25684 -14.6,-5.40127 -19,-6.98763 -4.4,-1.58636 -12.5,-4.51187 -18,-6.50113 -5.5,-1.98926 -13.6,-4.91114 -18,-6.49305 -4.4,-1.58191 -13.175,-4.75347 -19.5,-7.0479 -6.325,-2.29443 -12.2875,-4.40413 -13.25,-4.68821 -1.57162,-0.46387 -1.75,0.36538 -1.75,8.13565 v 8.65216 l 4.28988,1.83886 c 2.35943,1.01137 5.84693,2.1795 7.75,2.59583 1.90307,0.41634 6.83512,1.99477 10.96012,3.50762 4.125,1.51286 17.625,5.99649 30,9.96364 12.375,3.96714 26.1,8.47012 30.5,10.00662 15.1476,5.28962 63.00189,20.93044 64.16963,20.97336 0.6433,0.0236 1.95433,-2.3195 2.91341,-5.207 z M 303.46126,638.8185 C 304.30757,635.96867 305,632.32053 305,630.71151 c 0,-2.39397 -0.31795,-2.79459 -1.75,-2.20505 -0.9625,0.39625 -2.5375,0.94688 -3.5,1.22362 -1.05118,0.30225 -1.75,1.47775 -1.75,2.94373 0,3.58929 2.10393,11.32619 3.07997,11.32619 0.4634,0 1.53498,-2.33168 2.38129,-5.1815 z m 503.98843,-4.43479 c 0.57318,-3.46496 0.39368,-4.19861 -1.13438,-4.63655 -0.99842,-0.28614 -2.67362,-0.87162 -3.72266,-1.30108 -1.78436,-0.73047 -1.86486,-0.4193 -1.24843,4.82558 0.3624,3.08352 1.16357,6.87133 1.78036,8.41737 l 1.12144,2.81097 1.26138,-3 c 0.69375,-1.65 1.56779,-4.85233 1.94229,-7.11629 z M 683.87125,623.70915 C 685.46831,612.68591 685.54221,613 681.35178,613 h -3.64821 l 0.60265,7.81506 c 0.69263,8.98186 2.36055,14.5724 3.63535,12.18494 0.44051,-0.825 1.30887,-5.00588 1.92968,-9.29085 z M 425.86446,629.75 c 0.56075,-1.7875 1.32308,-6.2875 1.69405,-10 l 0.67448,-6.75 h -4.17777 -4.17777 l 0.62814,4.75 c 1.1717,8.86039 2.63304,15.25 3.48776,15.25 0.46835,0 1.31035,-1.4625 1.87111,-3.25 z m -46.49475,-13 C 380.2848,613.33537 380.1623,613 378,613 c -1.1,0 -1.99386,0.3375 -1.98635,0.75 0.0348,1.91228 1.29765,5.25 1.98635,5.25 0.42171,0 1.03808,-1.0125 1.36971,-2.25 z m 349.87222,-1.23522 c 0.37426,-1.95784 0.0685,-2.51478 -1.3806,-2.51478 -1.89486,0 -2.34423,1.578 -1.25655,4.41247 0.80546,2.09898 2.04343,1.20814 2.63715,-1.89769 z M 485,604.5 V 599 h -65 -65 v 5.5 5.5 h 65 65 z m 266,0 V 599 H 685.5 620 v 5.5 5.5 H 685.5 751 Z M 472,588 v -9 H 413.5 355 v 9 9 h 58.5 58.5 z m 13,3 v -6 h -5.5 -5.5 v 6 6 h 5.5 5.5 z m 146,0 v -6 h -5.5 -5.5 v 6 6 h 5.5 5.5 z m 120,-3 v -9 h -59 -59 v 9 9 h 59 59 z M 360.05572,502.44335 c 1.89435,-1.40615 6.03178,-3.98502 9.19428,-5.73082 l 5.75,-3.17418 v -6.76917 C 375,483.04613 374.64409,480 374.20908,480 c -0.85576,0 -15.12401,8.85459 -17.6608,10.95993 -1.10154,0.9142 -1.54828,3.12513 -1.54828,7.66251 0,3.50766 0.36257,6.37756 0.80572,6.37756 0.44315,0 2.35565,-1.15049 4.25,-2.55665 z M 751,498.54668 c 0,-7.18958 0.60139,-6.42257 -10.5,-13.39169 -9.69393,-6.08556 -9.5,-6.11304 -9.5,1.34646 0,5.87022 0.24279,6.61608 2.75,8.44806 3.90635,2.85431 15.60588,9.94738 16.5,10.00345 0.4125,0.0259 0.75,-2.85695 0.75,-6.40628 z m -22,-14.59319 c 0,-5.71209 -0.16976,-6.14073 -3.06945,-7.75 -1.6882,-0.93692 -5.24149,-3.10936 -7.8962,-4.82765 l -4.82675,-3.12415 -3.04582,4.32113 -3.04582,4.32113 6.41751,4.05303 c 3.52963,2.22916 6.76604,4.05526 7.19202,4.05799 0.42598,0.003 2.12451,1.11155 3.77451,2.46403 1.65,1.35249 3.3375,2.47526 3.75,2.49504 0.4125,0.0198 0.75,-2.68497 0.75,-6.01055 z m -368.87115,1.76699 c 2.95413,-1.80374 6.99041,-4.36231 8.9695,-5.68571 l 3.59835,-2.40618 0.64882,-18.56429 c 0.35686,-10.21037 0.6501,-25.62388 0.65165,-34.25225 0.003,-16.54017 1.70431,-27.70223 4.7345,-31.06205 1.49742,-1.66032 0.65433,-1.75 -16.45168,-1.75 H 344.25 l -0.625,3.125 c -0.90885,4.54424 -0.73631,22.67191 0.33669,35.375 1.12753,13.3485 9.32778,58.5 10.62456,58.5 0.0943,0 2.58846,-1.47578 5.5426,-3.27952 z m 28.01874,-2.40384 c 5.14383,-3.12584 9.50458,-5.79051 9.69057,-5.92149 0.18599,-0.13098 -0.87932,-2.31562 -2.36736,-4.85476 -2.69826,-4.60424 -2.71234,-4.61214 -5.25182,-2.94822 -1.40046,0.91762 -4.16015,2.58708 -6.13264,3.7099 -6.48017,3.68878 -7.08634,4.57438 -7.08634,10.35292 0,2.93975 0.40392,5.34501 0.89759,5.34501 0.49368,0 5.10618,-2.55751 10.25,-5.68336 z m 365.7201,-5.32414 c 1.12185,-4.67088 2.53554,-11.6425 3.14152,-15.4925 0.60599,-3.85 1.55063,-9.01027 2.09922,-11.46726 2.87002,-12.85429 4.80943,-45.84654 3.24972,-55.28274 L 761.73832,392 h -17.99161 c -14.25929,0 -17.78441,0.25931 -16.99282,1.25 3.26233,4.0829 4.41048,12.65557 5.2568,39.25 0.47258,14.85 0.88851,31.0877 0.92427,36.08378 l 0.065,9.08378 5.25,3.51014 c 10.14609,6.78366 12.17754,7.80972 12.90134,6.51635 0.37214,-0.66498 1.5945,-5.03068 2.71635,-9.70155 z M 413.5,468.99826 c 4.95,-3.11702 13.95,-8.72602 20,-12.46443 6.05,-3.73842 12.8,-8.00543 15,-9.48224 2.2,-1.47681 7.6,-4.83461 12,-7.46178 25.48203,-15.21489 23.28823,-13.10081 20.10778,-19.37712 C 479.15497,417.34571 477.75258,415 477.49135,415 c -0.26122,0 -4.64114,2.65226 -9.73315,5.89392 -5.09201,3.24165 -13.44949,8.52915 -18.57218,11.75 -5.12268,3.22084 -12.22083,7.76858 -15.77365,10.10608 -3.55282,2.3375 -6.63901,4.25 -6.8582,4.25 -0.21919,0 -3.92105,2.24227 -8.22635,4.98283 -4.3053,2.74055 -9.85282,6.1892 -12.32782,7.66367 -2.475,1.47446 -5.95344,3.74818 -7.72987,5.05271 l -3.22987,2.37186 2.71974,4.87128 c 3.13287,5.61125 1.73989,5.8718 15.74,-2.94409 z m 293.90498,3.57367 C 708.83224,470.13649 710,467.68046 710,467.11408 c 0,-0.56637 -2.1375,-2.25618 -4.75,-3.75513 -2.6125,-1.49895 -6.55,-3.92393 -8.75,-5.38885 -2.2,-1.46492 -9.625,-6.16527 -16.5,-10.44523 -12.18965,-7.58855 -16.45445,-10.28392 -28.23462,-17.84441 C 648.61135,427.65621 645.72882,426 645.35978,426 c -0.36905,0 -2.06347,-1.0381 -3.76539,-2.30688 C 638.20109,421.1634 628.23072,415 627.53177,415 626.91032,415 623,424.01092 623,425.44298 c 0,0.6538 1.9125,2.25511 4.25,3.55845 2.3375,1.30334 8.3,4.91676 13.25,8.02983 4.95,3.11306 11.025,6.87841 13.5,8.36745 2.475,1.48904 8.775,5.37115 14,8.6269 5.225,3.25576 11.525,7.15442 14,8.6637 2.475,1.50928 8.55,5.34132 13.5,8.51564 4.95,3.17432 9.06974,5.77679 9.15498,5.78327 0.0852,0.006 1.32274,-1.98085 2.75,-4.41629 z m -319.73614,-4.14081 c 2.5775,-2.0395 2.58936,-2.10742 0.83551,-4.78414 -1.60905,-2.45572 -1.76222,-5.36452 -1.60238,-30.43112 0.1444,-22.64496 -0.10966,-28.66854 -1.3886,-32.9229 -1.74478,-5.80397 -3.08637,-7.19486 -4.97833,-5.16128 -3.3007,3.54775 -3.70836,8.59801 -4.97635,61.6485 l -0.46082,19.28018 4.97818,-2.78018 c 2.738,-1.5291 6.15476,-3.71117 7.59279,-4.84906 z m 341.44845,-45.83046 c -0.99948,-20.50072 -2.78119,-29.00462 -5.94914,-28.39453 -3.34458,0.64411 -4.0641,7.29333 -4.00683,37.02787 0.0525,27.27822 -0.0483,28.89766 -1.98997,31.96435 l -2.04532,3.23036 7.18699,4.78069 7.18698,4.7807 0.27426,-17.14439 c 0.15084,-9.42942 -0.1448,-25.73969 -0.65697,-36.24505 z m -323.96742,34.78832 c 9.60998,-6.20221 9.65467,-6.24998 10.813,-11.55846 3.35092,-15.35699 5.14618,-42.03525 3.41213,-50.70552 L 418.75,392 h -16.875 c -9.28125,0 -16.875,0.17356 -16.875,0.38569 0,0.21213 0.6459,1.63067 1.43534,3.15232 3.04705,5.87319 3.86351,16.21738 3.15419,39.96199 -0.59714,19.9894 -0.47802,23.41887 0.91003,26.20007 1.94227,3.89167 1.93915,3.89259 14.65031,-4.31109 z M 716,431.21679 c 0.46819,-28.76277 0.63515,-30.98715 2.62454,-34.96679 l 2.12454,-4.25 h -17.23159 -17.23158 l -0.64094,9.75 c -0.74236,11.29285 0.50347,28.4781 2.96191,40.85707 1.69817,8.55081 1.75939,8.66288 6.15392,11.26483 2.44128,1.44546 7.40346,4.55238 11.02706,6.90427 9.9648,6.46764 9.60893,7.49772 10.21214,-29.55938 z m -93.04703,-12.84085 2.18496,-5.12406 -2.56896,-2.77196 L 620,407.70795 v 8.31269 c 0,4.57198 0.1728,8.12519 0.38401,7.89603 0.2112,-0.22917 1.36724,-2.7225 2.56896,-5.54073 z M 485,415.44424 v -7.55577 l -2.36438,2.74876 -2.36438,2.74875 1.99771,4.80701 C 483.36768,420.83685 484.43165,423 484.63333,423 484.835,423 485,419.59991 485,415.44424 Z M 418,387.3205 c 0,-4.18902 -4.66095,-15.04831 -7.96721,-18.56238 l -3.53279,-3.75483 -25.08264,-0.002 -25.08263,-0.002 -3.23207,4.02188 C 349.28679,373.77022 345,383.03227 345,386.52851 V 389 h 36.5 c 33.5116,0 36.5,-0.13751 36.5,-1.6795 z m 343,0.35171 c 0,-4.07926 -5.05459,-15.14379 -8.55636,-18.72992 L 748.5941,365 l -25.04705,0.018 -25.04705,0.018 -3.42564,4.12393 C 691.9113,372.9678 687,384.15095 687,387.54549 687,388.79196 692.29207,389 724,389 c 30.08947,0 37,-0.24799 37,-1.32779 z M 528,222.47929 v -4.5207 l -20.25,0.2707 -20.25,0.27071 -0.30536,3.66601 c -0.23751,2.85152 0.0958,3.76999 1.5,4.134 0.99295,0.25739 10.24286,0.52019 20.55536,0.58399 L 528,227 Z M 506.9027,209.1818 c 0.53519,-1 1.11352,-7.8625 1.28519,-15.25 L 508.5,180.5 l -9.59913,-0.28439 -9.59913,-0.28439 -0.64488,8.28439 c -0.35468,4.55641 -0.64757,11.54689 -0.65087,15.53439 L 488,211 h 8.96482 c 7.64256,0 9.10833,-0.26817 9.93788,-1.8182 z M 543,182 v -5 h -8.5 -8.5 v 5 5 h 8.5 8.5 z m 72.61281,-5.75 c -0.36423,-4.8125 -0.92721,-10.6625 -1.25106,-13 L 613.77291,159 h -5.82744 c -3.20509,0 -6.06542,0.38506 -6.35629,0.8557 -0.58516,0.94681 2.10325,22.83763 2.97865,24.25404 0.30261,0.48964 3.06053,0.89026 6.12871,0.89026 h 5.5785 z m -122.73847,-12.5 -0.12566,-14.25 -1.28837,9 c -1.85095,12.92995 -1.83758,19.5 0.0397,19.5 1.26904,0 1.48065,-2.19415 1.37434,-14.25 z M 543,157 V 139 H 519.5 496 v 18 18 h 23.5 23.5 z m 69.7234,-10.25 c -0.22183,-1.7875 -0.40333,-0.325 -0.40333,3.25 0,3.575 0.1815,5.0375 0.40333,3.25 0.22182,-1.7875 0.22182,-4.7125 0,-6.5 z m -3.71239,3.5 c 0.006,-2.0625 0.28993,-5.4375 0.63084,-7.5 L 610.26168,139 H 587.63084 565 v 7.5 7.5 h 22 22 l 0.011,-3.75 z M 611,134.79028 C 611,127.61986 599.16214,72.194496 597.05859,69.516033 596.61972,68.957215 595.70614,66.7 595.02842,64.5 593.32502,58.970509 584.34303,39.409662 581.13897,34.251788 L 578.5,30.003576 552.83651,30.001788 527.17302,30 524.08651,34.197003 C 522.38893,36.505354 521,38.780593 521,39.25309 c 0,0.472497 -1.38668,3.646346 -3.08151,7.052997 -7.00524,14.080695 -15.65975,40.13803 -17.33533,52.193913 -0.3822,2.75 -2.01977,11.85044 -3.63904,20.2232 -1.61927,8.37276 -2.94412,15.68526 -2.94412,16.25 0,0.6907 19.14877,1.0268 58.5,1.0268 45.09454,0 58.5,-0.27721 58.5,-1.20972 z m -111.85064,-9.11031 c -1.21379,-1.46252 0.33336,-12.45106 3.26365,-23.17997 2.17094,-7.948656 8.85602,-21.85994 12.03012,-25.034043 1.39505,-1.395051 2.82835,-3.699435 3.1851,-5.120854 0.35676,-1.421419 4.52385,-6.518991 9.26021,-11.327939 C 536.03948,51.725875 537.61563,51 548.63957,51 H 552 v 13.87368 13.873681 l -6.25,2.997972 C 539.092,84.939016 529.15572,91.970351 527.74938,94.483351 527.28256,95.317508 526.30729,96 525.58211,96 c -0.72517,0 -3.06183,2.980957 -5.19257,6.62435 -2.13073,3.64339 -4.44004,6.84154 -5.1318,7.10699 -0.69176,0.26545 -1.25774,0.97025 -1.25774,1.56621 0,0.59597 -1.6875,4.37089 -3.75,8.38872 -3.44653,6.71399 -4.0031,7.3055 -6.87756,7.30944 -1.72015,0.002 -3.62054,-0.58972 -4.22308,-1.31574 z m 8.7493,-6.63901 C 509.6044,115.76349 511,112.81553 511,112.48994 c 0,-1.10305 -7.2577,-3.6324 -8.05821,-2.80834 -0.43727,0.45012 -1.11119,4.0809 -1.49762,8.0684 -0.66359,6.84752 -0.59002,7.25 1.32528,7.25 1.46332,0 2.89125,-1.65894 5.12921,-5.95904 z M 516.32363,104.75 c 4.56629,-6.118739 4.63163,-6.582046 2.32634,-16.495868 C 517.46749,83.168905 516.275,79.011257 516,79.014914 c -1.35266,0.01799 -12.60421,24.714206 -11.68056,25.637856 0.65125,0.65126 7.29124,3.27256 8.37967,3.30809 0.65951,0.0215 2.29054,-1.42336 3.62452,-3.21086 z M 532.5,87.329693 c 3.85,-3.104748 9.3625,-6.693379 12.25,-7.974735 L 550,77.02522 V 64.940654 52.856087 l -5.75,0.697306 c -3.1625,0.383519 -6.46305,1.066888 -7.33456,1.518599 -3.46366,1.795248 -16.91483,17.124331 -16.89099,19.249131 0.0477,4.256176 3.73025,18.684612 4.76409,18.666222 0.3913,-0.007 3.86146,-2.552904 7.71146,-5.657652 z M 596.98238,123.75 c -1.09352,-1.7875 -2.74845,-5.275 -3.67763,-7.75 -0.92918,-2.475 -2.88835,-5.75693 -4.3537,-7.29319 -1.46536,-1.53625 -3.74131,-4.95673 -5.05767,-7.60108 -1.31636,-2.644338 -3.15325,-5.212405 -4.08198,-5.70681 -0.92872,-0.494406 -4.97872,-3.37954 -9,-6.41141 -4.02127,-3.031869 -9.4489,-6.51352 -12.0614,-7.737003 L 554,79.025994 V 65.012997 51 l 4.25,0.02386 c 9.23388,0.05183 11.74993,1.31514 20.13548,10.109993 4.33701,4.548708 8.46236,9.651062 9.16744,11.338566 0.70509,1.687504 2.27311,3.959052 3.4845,5.047886 3.61118,3.245842 11.7417,21.152595 12.42648,27.368245 0.0976,0.8863 0.44339,2.28645 0.76832,3.11145 0.32493,0.825 1.12296,5.04727 1.77339,9.38282 1.30928,8.7272 0.9331,9.57305 -4.27031,9.60187 -2.05331,0.0114 -3.27629,-0.82095 -4.75292,-3.23469 z m 7.72286,-0.0757 c -0.2798,-0.72915 -0.83408,-4.36385 -1.23174,-8.07709 -0.71341,-6.66171 -0.75787,-6.74283 -3.34825,-6.10846 -5.39044,1.32007 -5.81296,2.84183 -2.63509,9.49071 2.34803,4.91265 3.32349,6.02058 5.3007,6.02058 1.60148,0 2.25062,-0.44953 1.91438,-1.32574 z m -7.73293,-17.27986 c 4.97032,-1.98873 4.88081,-2.70242 -2.18173,-17.3944 l -5.04743,-10.5 -2.2982,7.389568 c -3.67501,11.81656 -3.66577,11.691528 -1.09336,14.783892 1.2932,1.5546 2.88396,3.83904 3.53503,5.07654 1.41053,2.68106 1.88723,2.72441 7.08569,0.6444 z M 582.30088,88.25 c 3.12691,-9.700791 3.73446,-13.027401 2.81303,-15.402544 C 584.61303,71.556355 580.63325,66.7875 576.26996,62.25 569.7423,55.461728 567.79747,54 565.29334,54 c -1.67383,0 -4.46391,-0.284115 -6.20017,-0.631367 l -3.15684,-0.631366 0.28184,12.361383 0.28183,12.361383 5.07246,2.519983 C 567.5145,82.932009 574.705,87.88398 577.40499,90.883604 578.45273,92.047622 579.63843,93 580.03988,93 c 0.40145,0 1.4189,-2.1375 2.261,-4.75 z M 576,26.699076 c 0,-0.715509 -2.70038,-4.485256 -6.00084,-8.377216 -4.36947,-5.152561 -7.34232,-7.653384 -10.93538,-9.1990762 -6.04332,-2.5997681 -7.33963,-2.581211 -13.17381,0.1885878 C 541.12467,11.573711 529,23.985162 529,26.600833 529,27.76003 533.03047,28 552.5,28 571.12395,28 576,27.730069 576,26.699076 Z"
         id="path16" />
    </g>
  </g>
</svg>
